<?xml version="1.0" standalone="no"?>
<!DOCTYPE svg PUBLIC "-//W3C//DTD SVG 20010904//EN"
 "http://www.w3.org/TR/2001/REC-SVG-20010904/DTD/svg10.dtd">
<svg version="1.0" xmlns="http://www.w3.org/2000/svg"
 width="541.000000pt" height="541.000000pt" viewBox="0 0 541.000000 541.000000"
 preserveAspectRatio="xMidYMid meet">
<metadata>
Created by potrace 1.11, written by Peter Selinger 2001-2013
</metadata>
<g transform="translate(0.000000,541.000000) scale(0.100000,-0.100000)"
fill="#000000" stroke="none">
<path d="M3327 5404 c-3 -3 -25 -8 -49 -9 -24 -2 -65 -6 -93 -9 -27 -3 -68 -8
-90 -10 -41 -5 -363 -43 -425 -51 -19 -2 -78 -9 -130 -15 -52 -6 -108 -13
-125 -15 -16 -2 -57 -7 -90 -10 -33 -4 -71 -9 -85 -11 -14 -3 -47 -7 -75 -10
-27 -3 -68 -7 -90 -10 -54 -6 -123 -14 -160 -18 -16 -2 -50 -6 -75 -10 -118
-16 -317 -38 -339 -37 -12 0 -28 -2 -34 -6 -7 -4 -30 -8 -52 -9 -43 -3 -63 -5
-250 -29 -114 -14 -175 -21 -255 -29 -70 -7 -226 -26 -258 -32 l-33 -5 6 -77
c3 -42 8 -93 10 -112 4 -32 9 -80 20 -195 2 -22 7 -83 11 -135 3 -52 8 -102 9
-111 2 -9 6 -56 10 -105 3 -49 8 -96 10 -104 2 -8 7 -60 11 -115 3 -55 8 -108
9 -117 2 -9 7 -52 10 -95 4 -43 8 -89 10 -103 2 -14 6 -63 10 -110 3 -47 8
-105 10 -130 6 -55 12 -122 20 -215 4 -38 8 -86 10 -105 3 -19 7 -71 10 -115
3 -44 8 -91 10 -105 2 -14 6 -59 10 -100 3 -41 8 -91 10 -110 2 -19 7 -69 10
-110 3 -41 8 -91 10 -110 2 -19 6 -75 10 -125 4 -49 9 -97 10 -106 2 -9 6 -58
10 -109 4 -51 8 -101 10 -110 2 -9 6 -54 10 -101 3 -46 8 -100 10 -119 4 -33
29 -311 40 -450 6 -74 15 -153 20 -190 2 -14 6 -68 10 -120 8 -115 11 -127 36
-135 10 -4 19 -13 19 -22 0 -8 8 -17 19 -20 10 -2 24 -16 30 -29 6 -13 17 -24
26 -24 8 0 15 -7 15 -15 0 -9 11 -21 25 -27 14 -6 25 -17 25 -25 0 -7 11 -19
25 -25 14 -6 25 -19 25 -29 0 -10 10 -19 25 -23 16 -4 25 -13 25 -26 0 -18 10
-25 32 -21 4 0 10 -10 14 -23 3 -15 16 -27 30 -30 15 -4 24 -14 24 -26 0 -13
9 -22 25 -26 16 -4 25 -13 25 -25 0 -12 9 -21 25 -25 16 -4 25 -13 25 -25 0
-12 10 -23 25 -29 14 -5 30 -21 35 -35 6 -15 17 -25 30 -25 13 0 20 -7 20 -20
0 -14 11 -25 30 -34 17 -7 27 -15 24 -19 -11 -10 16 -37 37 -37 12 0 19 -7 19
-18 0 -23 19 -42 42 -42 11 0 18 -7 18 -20 0 -14 11 -26 33 -35 17 -7 31 -16
30 -19 -9 -20 1 -35 27 -41 17 -4 27 -11 24 -16 -7 -12 25 -51 37 -44 9 6 22
-12 26 -34 2 -17 22 -31 45 -31 11 0 15 -5 12 -14 -17 -44 91 -63 110 -20 7
16 19 22 43 22 35 0 63 16 63 36 0 6 16 11 37 12 24 1 42 8 54 22 10 14 29 22
47 22 30 0 68 31 55 44 -5 5 6 5 24 1 27 -5 37 -2 58 19 13 14 39 26 57 28 20
2 36 11 43 23 7 13 18 19 33 17 26 -4 76 24 67 37 -3 5 11 9 30 9 37 0 69 18
59 33 -3 5 11 9 30 9 32 0 66 20 66 39 0 4 13 6 29 3 23 -3 33 1 45 20 10 16
24 24 39 23 29 -3 57 12 57 30 0 8 8 12 19 10 30 -6 60 5 66 24 3 12 16 18 37
18 20 0 37 7 49 22 10 12 21 21 26 20 29 -5 52 4 58 21 4 13 13 19 28 16 28
-4 57 10 57 30 0 10 7 13 24 8 18 -4 31 0 48 18 13 12 35 24 49 24 37 2 37 3
44 23 4 13 12 17 29 14 16 -3 31 2 45 16 12 12 32 21 45 21 14 0 31 9 40 21 8
12 21 19 29 16 18 -7 60 21 51 34 -3 6 4 7 19 4 18 -5 31 -1 46 14 12 12 32
21 45 21 14 0 31 8 38 18 7 10 24 19 38 19 13 1 30 9 35 17 10 12 34 20 78 25
4 1 7 8 7 16 0 10 10 15 30 15 18 0 34 7 41 18 8 12 20 17 34 14 14 -2 28 3
36 15 8 10 25 20 39 20 13 1 30 9 36 18 6 8 18 15 27 15 27 0 47 12 47 27 0 8
4 12 10 8 15 -9 60 6 60 21 0 9 11 14 29 14 17 0 32 3 34 8 6 9 15 84 22 187
5 78 10 140 20 275 2 36 7 106 10 155 3 50 8 110 10 135 2 25 7 88 10 140 3
52 8 111 10 130 2 19 7 82 11 140 3 58 7 121 9 140 2 19 6 82 9 140 4 58 9
125 11 150 2 25 7 86 11 135 11 171 19 279 29 415 8 105 15 195 20 285 3 50 8
110 10 135 2 25 7 86 10 135 3 50 8 115 10 145 2 30 7 96 11 145 3 50 8 108 9
130 2 22 7 85 10 140 4 55 8 116 10 135 2 19 7 82 11 140 4 58 8 119 9 135 1
17 6 84 10 150 4 66 9 123 12 127 4 8 -32 29 -44 26 -4 -1 -26 2 -48 6 -22 5
-49 10 -60 11 -24 3 -71 13 -105 22 -14 3 -36 7 -50 9 -14 2 -47 8 -75 14 -27
5 -61 12 -75 14 -31 5 -126 24 -160 32 -22 5 -101 20 -197 38 -17 3 -87 17
-155 30 -68 14 -136 27 -153 30 -29 6 -54 11 -105 21 -14 3 -50 9 -80 15 -30
6 -66 12 -80 15 -62 13 -77 14 -83 9z"/>
</g>
</svg>
