<?xml version="1.0" encoding="UTF-8"?>
<svg width="969px" height="567px" viewBox="0 0 969 567" version="1.1" xmlns="http://www.w3.org/2000/svg" xmlns:xlink="http://www.w3.org/1999/xlink">
    <!-- Generator: Sketch 52.6 (67491) - http://www.bohemiancoding.com/sketch -->
    <title>Group 2</title>
    <desc>Created with Sketch.</desc>
    <g id="Page-1" stroke="none" stroke-width="1" fill="none" fill-rule="evenodd">
        <g id="excalidraw-2020314173545" transform="translate(0.000000, -33.000000)">
            <g id="Group-2" transform="translate(0.000000, 32.000000)">
                <g id="Group" transform="translate(0.952148, 0.989049)">
                    <path d="M3.30002981,14.1189513 C7.56355857,12.7552285 6.18092799,11.6063763 14.3314558,3.60131158 M3.61491587,17.1841865 C5.68522478,12.7269552 11.4599878,6.88863996 13.9818319,3.70837689 M5.47180889,26.6473804 C14.1981993,19.7736436 17.6085876,7.84080875 22.6109764,3.23867288 M3.75882531,27.2167956 C8.74804192,24.5854988 11.1156859,19.9507152 23.2896702,4.46975634 M0.125956921,39.3871579 C13.0855652,29.6805949 29.9473167,11.3428204 33.0892743,4.05591543 M3.78698253,40.7542797 C10.0024545,32.4430396 18.8831544,21.9857932 35.712986,5.24480637 M0.957743721,55.5479727 C15.6825287,40.5251302 30.4121487,25.4120747 41.6307779,1.87641955 M2.26494382,51.4039231 C15.1438052,34.6977616 31.417436,18.9547507 46.6426323,5.09894462 M6.09394718,66.2052132 C21.6310162,51.1049026 33.6124368,34.9658957 55.9909805,2.11070769 M2.54269263,63.5970102 C16.6644898,47.1870233 33.6052984,30.3176483 56.4420734,4.8200739 M1.38381046,80.1756517 C22.7208824,59.9385995 39.7378702,39.6826807 68.6167813,1.04039608 M2.18681832,78.1683188 C19.900566,56.1385413 39.0137069,37.3179272 67.2228206,5.16680019 M4.36798297,90.1471546 C30.8160548,58.515248 57.8682504,31.1484664 81.271486,3.19319466 M5.01195712,87.4233299 C21.3538879,66.1588493 40.30149,46.1759766 77.531932,3.18093256 M0.247461349,98.8083913 C20.46138,80.7032347 35.1799501,55.0945947 85.6598067,2.71790715 M3.1122331,100.205437 C31.6663345,69.7534053 58.0221706,36.1975718 87.0395126,2.49998321 M5.13282557,113.204996 C42.6068249,72.3036097 76.1803542,32.1768428 96.0528614,0.759431009 M4.1729943,113.189609 C30.8074135,82.2642012 61.1354857,46.902491 99.2262141,5.66966749 M6.73288477,126.642827 C28.1049143,98.3157958 48.0751829,75.7504947 105.913175,2.83375745 M2.22195855,127.723144 C43.700668,77.077822 83.8429373,32.3231929 110.070735,4.45640385 M3.60391336,137.044124 C23.5395956,111.352245 50.6372937,85.6690577 119.863618,4.95768102 M4.94094958,137.119337 C41.4586622,94.7860679 81.158712,49.4025699 118.081263,4.91452345 M5.11859201,149.077223 C31.7275077,118.400517 60.1552791,85.3351658 128.936646,4.00496126 M3.69733799,151.724684 C35.7789132,114.253781 66.0161745,77.222261 131.607208,2.67993183 M3.35650272,164.112274 C57.0930761,101.174145 107.43615,39.0582062 139.411398,3.69088052 M1.71402494,162.080523 C49.663717,109.962205 98.3093588,55.745605 139.700597,3.86867783 M1.0538622,171.933172 C37.6380648,139.955762 62.0469664,105.511742 147.871824,1.05949708 M2.71819726,175.614321 C39.1720604,130.512942 74.8855243,92.6043348 150.917952,4.10882917 M2.147051,188.20063 C65.4447775,117.715331 125.382196,48.7437632 163.545743,2.99325225 M4.60613786,185.382122 C49.1567679,136.185743 91.1741516,85.2099022 160.51052,5.74131769 M2.21701171,197.18632 C36.8901028,156.992183 76.2406655,108.896987 171.079529,3.13746273 M1.65211461,199.453264 C49.7398002,145.465631 96.4774625,88.1564918 172.972968,5.13852408 M5.11078024,211.25696 C63.6742193,140.439577 124.735789,63.9809313 184.689841,3.68824347 M3.73031626,209.802566 C69.1078679,135.631995 135.741695,58.6709913 183.921681,3.33670862 M3.42797783,226.173789 C69.3230379,146.131149 137.199894,65.8942384 192.89413,6.0868918 M2.12748117,222.887417 C50.8296321,172.802893 97.4677206,118.895455 194.034351,4.04948665 M3.64619492,236.36051 C73.8212855,156.609543 139.5807,75.5670663 203.701211,6.32853404 M1.65748344,235.785096 C46.8028618,185.997809 94.8255698,129.496387 204.411337,4.71584278 M3.86732211,245.870261 C76.1108946,162.84075 153.516016,75.1619161 216.665455,5.22619703 M2.73212779,247.70191 C45.9640279,196.005286 88.3155839,144.446214 214.171885,4.7537406 M0.645298062,262.319737 C70.9932606,183.818929 139.032628,106.132244 224.732734,3.16424276 M2.15477096,258.548495 C86.2150234,164.820203 170.045674,70.162057 225.281744,2.77215703 M4.60056372,271.911126 C52.4878042,217.236361 100.373517,162.003192 233.927867,3.615299 M2.70411516,272.217881 C51.600584,216.961463 96.0626842,162.553798 237.318023,3.36849379 M0.448539012,287.043585 C75.1649852,197.81081 149.316178,115.241333 246.488693,3.49832528 M1.92254726,285.639574 C62.0006723,217.231595 121.443568,149.858115 247.094984,3.82590435 M2.1328611,296.728812 C93.8844088,194.176729 181.253843,96.1361291 259.494665,2.34571561 M1.91912579,296.906596 C70.1371338,224.27823 133.391971,150.089934 256.742098,3.96017127 M0.97324938,309.888924 C68.9411881,224.634322 139.937351,144.0733 266.33592,2.58667342 M3.05728224,308.196972 C106.051688,189.918696 206.685949,74.2558863 267.375677,3.57439131 M2.91790349,319.384679 C72.2932673,242.200409 137.581232,165.297721 277.208325,3.2121512 M3.6576705,320.382855 C91.9538237,212.201661 184.890008,105.791977 279.63929,3.69941096 M2.76746567,333.277934 C75.2634567,253.846348 150.525633,170.648668 291.226289,5.27588112 M2.34370974,333.008459 C95.4356702,224.394584 187.19908,117.120232 289.050006,4.43121729 M1.82175471,345.719676 C80.5526116,258.708166 160.058734,171.319067 301.063399,2.460595 M2.51610937,345.499287 C79.2830304,262.755028 154.255328,175.655974 299.158508,4.31479414 M3.61958095,358.131803 C118.73246,220.947393 239.178489,81.5942065 309.570998,5.4130553 M2.98035009,357.265469 C83.4211191,270.230817 161.394025,180.363978 309.893748,4.53881818 M3.29685823,368.266247 C111.343475,242.435103 223.949569,117.237776 322.322132,5.3793649 M3.6744092,370.073955 C100.561168,257.510055 199.603028,144.492704 320.439996,4.10974687 M3.4621966,380.55833 C117.249006,249.218323 232.984247,116.437248 330.935613,2.42695824 M2.96100388,381.084208 C120.500508,249.017095 236.045178,117.151462 332.127048,3.77726218 M2.85858151,393.234385 C126.702423,252.942585 251.893355,109.167538 342.839638,2.08046518 M3.12363141,393.857933 C94.5322558,289.082006 186.641671,182.672462 342.044786,3.39411596 M4.37282249,405.520945 C85.7021967,309.679106 172.638077,207.651298 353.860981,4.01767188 M3.3006032,406.823569 C91.1421903,304.811554 182.745361,200.483561 353.257996,4.52917496 M1.90048486,417.891552 C137.398899,268.918388 268.99173,114.752105 362.734271,4.69805566 M3.35879805,418.527484 C77.0623977,332.695848 149.525407,248.06476 363.151525,3.5983374 M3.84551937,429.232311 C130.945647,284.510559 258.5914,138.321506 373.752521,5.54366008 M3.39613643,431.468453 C83.0711453,341.622125 160.846105,252.442698 373.416264,4.49491149 M3.99449827,443.973056 C119.111992,311.96867 233.454273,181.145632 385.241366,5.67025663 M2.64081657,442.803827 C84.7641709,348.035514 164.929997,255.175608 384.948379,3.69577712 M1.2544973,456.546769 C143.258993,291.254155 283.600182,127.82372 395.553002,3.19205428 M3.21419644,454.783943 C120.508387,323.240969 237.357766,188.109742 395.068255,3.94109541 M2.5273318,468.120739 C129.164355,320.541332 257.205051,173.089182 404.916191,3.77169953 M2.63002985,467.058295 C130.360965,318.8738 260.432364,169.392465 405.795497,3.95930876 M1.42320248,480.474822 C149.327176,308.709794 295.059513,143.059472 415.686254,5.17027637 M2.93311224,478.928785 C87.7708575,382.956798 174.591899,283.537503 416.923929,3.39214078 M3.53493163,490.332602 C119.344444,361.905191 233.403445,230.762395 427.795076,2.59730626 M3.19851687,491.255885 C163.950959,302.826121 328.160551,113.539021 426.296592,3.71959637 M2.031904,505.066101 C102.795737,391.081891 203.467588,273.592982 439.001103,5.2607482 M3.95053573,503.338351 C134.07495,359.212027 262.605077,212.101636 437.280748,3.58496166 M2.85400783,515.200487 C93.7125252,413.241084 182.936839,310.934213 446.739347,3.31699868 M2.78162053,516.992928 C174.623456,317.649305 349.198586,117.084295 447.842875,4.51980404 M3.58587095,528.745238 C116.571042,393.782007 235.266866,259.594001 457.971379,3.62089167 M2.05161882,528.060515 C133.071175,375.447499 263.92941,225.522149 458.023672,4.66897212 M2.57050659,541.072397 C128.404658,400.94821 247.242058,263.709094 468.635333,3.07569867 M2.82641981,540.65942 C163.338282,359.62183 323.550986,174.687865 468.613056,4.5155958 M3.38354952,553.247735 C163.266766,359.634547 326.454328,171.974669 479.895908,5.18312865 M2.9771905,552.291523 C192.245217,337.842226 380.916599,121.599997 480.625162,3.80608622 M2.93931506,562.226043 C190.417131,348.882751 381.393005,133.206796 490.394363,2.9933281 M5.31143468,562.812565 C181.397546,354.384685 363.024033,145.890331 490.773346,4.07513574 M14.5892713,563.363452 C183.407209,374.744485 346.285721,184.350984 502.89852,5.25488101 M15.0964652,562.919475 C115.621239,448.872095 214.937168,333.069183 500.54518,3.97071801 M25.5539142,562.13698 C141.898874,437.672664 254.301536,306.690169 513.352764,3.36480885 M25.5162789,563.044909 C148.199034,423.578879 267.173873,285.997181 511.677456,3.37908791 M37.8151284,562.106149 C201.3983,364.478199 371.538887,170.929151 523.928042,3.91857062 M36.1889178,562.493874 C223.917712,348.24745 406.997149,138.223873 522.431186,3.54978157 M46.3813612,563.228917 C161.39517,436.31883 273.292558,306.368274 532.071864,5.26006279 M46.6566425,563.334654 C164.949012,425.429646 284.752091,288.964757 532.666598,3.22061637 M57.1376224,564.011681 C166.303759,442.002785 275.71543,316.923521 543.558303,4.43161936 M58.2609327,563.323818 C230.958127,368.858621 402.724028,172.771268 543.31814,3.54269095 M67.8954842,562.059275 C224.30953,380.289615 380.008444,201.691238 555.137993,2.52401181 M68.8174865,562.431213 C209.793849,401.192335 348.773068,239.967788 555.069481,4.20538519 M79.8430815,562.624971 C212.810266,411.868403 344.786754,258.978495 564.38813,5.22644911 M79.2912209,562.164971 C192.496469,429.046002 308.947546,294.486273 564.628505,3.56136022 M88.1951114,563.160477 C210.331496,424.666366 327.99006,288.843942 574.762476,2.57657776 M90.0712718,562.496501 C192.319006,443.982834 296.389389,324.710715 576.202317,4.35155843 M100.042834,561.86594 C259.900904,370.564726 425.276741,182.464456 585.585293,5.46519132 M99.6459934,562.785497 C266.159536,378.262817 429.983396,190.169979 585.916182,4.98491302 M112.204071,561.439944 C228.553116,432.740311 341.53739,300.851829 596.525585,3.16739212 M110.477959,563.504932 C248.046921,400.731419 388.670079,239.179656 595.912759,3.84450973 M122.673207,561.62951 C278.118486,386.043064 435.491738,207.548353 607.110739,3.62084871 M121.278961,562.36606 C224.598575,450.91123 325.027294,333.287787 606.69075,3.94084426 M130.871191,562.980098 C292.775072,382.379068 451.270468,198.37956 618.000764,3.75695758 M132.88501,562.443419 C278.470043,390.30303 428.253049,218.221271 616.804134,4.41798399 M142.695531,562.585604 C271.382117,412.742997 401.013184,262.635446 627.382235,3.60555272 M142.131335,563.499825 C333.624979,339.523569 526.939555,118.100636 628.08111,4.63327756 M154.770299,564.238362 C277.627344,416.751476 404.207477,270.702927 639.218284,5.24490562 M154.127385,562.111377 C293.967373,402.180784 435.084614,239.194889 639.499095,3.48235486 M162.696131,561.379143 C301.022255,411.470126 430.927614,259.24048 650.69861,3.75172525 M163.331826,562.192455 C325.419166,382.590803 485.296751,197.269655 649.859725,4.32412701 M174.100224,563.247157 C345.635612,357.449669 518.753266,158.319314 660.489472,5.3511581 M173.827544,562.320721 C363.689896,350.474203 551.466868,134.442186 659.663853,4.7057864 M184.886338,561.830049 C367.767541,351.527147 554.286998,137.372183 672.183692,5.56678815 M185.196645,563.062115 C380.082793,337.202062 572.101853,115.458544 670.586554,4.48780666 M195.484794,561.213904 C316.804211,419.287856 442.194196,277.96038 680.150656,4.17063689 M195.19545,562.295863 C373.148098,359.142601 550.363592,154.313911 680.952119,3.56894267 M206.302478,563.733244 C341.782142,405.678726 478.900973,247.243665 692.18631,2.53316331 M206.429503,562.539468 C342.263193,409.695077 477.886405,254.208659 691.609058,3.61123057 M217.972837,560.921026 C401.702253,346.523083 586.409779,133.885176 702.563165,2.57326388 M217.828563,563.073718 C374.11842,379.171661 534.745287,195.00689 703.005103,4.16498773 M226.80588,561.258649 C336.054381,442.031048 443.260787,319.315391 714.680292,4.1082726 M228.12161,562.467679 C340.342755,437.664302 447.628691,313.51652 713.0622,4.3938128 M237.182121,562.680655 C359.981605,421.332611 486.838487,275.586525 723.713326,3.80396094 M237.855784,562.658409 C332.905397,451.167858 430.442116,338.648417 723.851517,3.99958565 M246.826813,564.505896 C381.086028,406.83155 516.373329,250.623595 736.064465,5.3245379 M249.09562,563.65712 C420.772415,363.747641 593.082576,165.091004 734.668439,3.34746742 M259.123594,562.915792 C359.850189,439.97144 467.365258,318.938409 745.612468,2.28264994 M259.361693,563.402433 C377.294955,428.355812 492.932932,294.433256 745.507571,4.39090049 M268.388724,562.885489 C417.541192,391.373073 563.541396,225.161505 756.362658,4.38938107 M269.32986,563.666538 C453.1507,348.550349 640.093988,133.878175 756.537736,4.3966085 M278.665024,563.48857 C417.886509,407.933064 552.945629,255.182253 762.472683,7.42309109 M280.050192,562.934911 C435.890248,384.614988 590.75348,207.302376 764.15274,6.28843463 M289.571881,563.247057 C461.81936,365.929288 634.741636,166.701147 763.846459,20.1341252 M291.621983,563.731306 C422.549261,410.413119 558.084409,254.773522 762.990313,19.5270513 M302.95524,563.88141 C422.034865,419.698694 543.754837,279.192697 763.953822,32.4629457 M301.068742,563.142759 C414.548492,426.727012 529.864589,294.336456 762.97676,31.9030916 M311.937612,562.860524 C448.828471,399.123583 590.930518,237.903866 764.350287,44.7690963 M312.2132,563.344587 C409.690464,452.77248 509.555838,337.829527 763.871721,43.141114 M323.568069,563.551734 C455.76551,413.056756 587.622065,260.428064 764.223986,54.7058484 M322.352303,562.12539 C439.79214,429.328454 555.229647,296.244089 764.440113,55.3492482 M331.872246,561.370811 C425.979762,452.646068 519.979204,345.799822 763.189619,68.124911 M333.732221,563.412047 C430.22056,453.257215 523.865621,345.17379 764.471071,67.4989054 M343.70234,563.531964 C471.553873,422.517145 594.639249,280.378601 762.482384,79.5811401 M343.423337,562.994718 C478.888815,411.333635 611.71315,258.253737 762.796891,80.3044875 M354.987111,562.39784 C485.006541,412.288579 617.55125,263.111067 764.632224,92.2637006 M354.795257,562.251848 C476.346149,426.829729 595.156849,290.353992 764.192263,93.329549 M363.78188,561.629522 C480.834235,435.395138 589.484529,307.471234 764.977463,105.474323 M365.791804,563.475158 C520.874298,380.607765 677.939982,198.728235 762.912922,104.040054 M375.318534,562.336533 C485.67991,429.375282 600.783081,296.88748 764.139049,115.358468 M375.60602,562.794655 C498.39137,418.255153 624.652359,273.411774 763.994878,116.11054 M386.255519,563.62683 C482.531682,452.557111 580.84703,340.366768 762.814491,127.41003 M387.355166,563.103624 C471.698826,469.570654 555.361992,374.883394 763.67336,128.303823 M396.127844,561.556811 C530.423418,407.68554 668.907967,252.189275 764.571803,141.776054 M397.155721,562.183632 C540.555882,399.266515 681.44066,237.900888 762.601758,141.750711 M407.597083,562.481309 C530.986537,416.401571 659.309656,271.715406 764.323737,152.387891 M407.998383,562.429529 C522.072306,431.545284 634.757786,301.16868 763.950856,153.056166 M418.70137,562.803597 C494.157476,473.230949 571.195286,384.575723 763.841433,164.839461 M418.82307,562.174443 C487.838091,482.511229 559.691636,398.267225 764.147482,165.352558 M429.505402,562.325382 C521.144268,456.773874 614.971474,347.479395 763.428649,176.31841 M428.793916,562.214787 C552.483303,423.548307 674.00381,285.154502 763.77374,178.205829 M440.776283,563.214047 C526.725215,463.677824 616.236175,358.734939 764.738375,189.711678 M439.160975,561.921155 C538.715873,444.03019 640.319289,327.66787 763.170625,190.105606 M450.958294,564.219369 C525.139911,477.526286 600.555125,391.189034 762.155203,203.823992 M449.531093,562.649641 C526.019563,473.193165 601.369579,386.37689 763.776988,201.618362 M461.250553,562.198502 C523.391625,488.789391 584.11913,418.771164 762.220844,213.367271 M461.659325,561.983869 C548.242374,462.105917 638.210655,361.879553 763.465921,214.579606 M472.343437,564.853712 C544.38678,480.115013 618.094925,396.179223 761.617422,227.358744 M470.783785,563.244899 C583.246331,432.809496 693.459416,304.536118 762.918501,227.162969 M481.077298,564.427045 C542.775235,488.68251 607.033188,412.561079 764.148228,237.228455 M481.445508,562.780097 C572.857324,458.486382 660.044454,356.465604 762.882495,239.528608 M492.657676,560.930982 C553.71383,494.426794 608.268241,428.866803 762.726864,250.49647 M491.8935,562.002524 C550.579235,496.255256 609.700965,428.528981 763.655421,250.167445 M501.332101,563.884239 C554.507448,499.174793 612.497169,434.949878 763.543824,264.788989 M502.713238,561.922969 C564.983039,493.999381 622.294297,426.83724 763.529914,263.256684 M515.763749,562.88096 C573.064447,494.606523 635.143864,421.884223 761.644317,274.686881 M513.450115,564.158434 C592.975889,470.323802 673.187684,377.170387 763.886918,276.314159 M525.42741,560.998166 C619.292591,457.109218 712.439305,348.763484 764.091366,287.115813 M525.272286,562.438443 C580.797522,492.982975 638.844689,422.956665 764.744744,288.756823 M533.05745,563.406512 C611.904815,475.017626 688.344582,389.373847 762.373639,298.062422 M535.273236,561.938674 C602.3759,485.794768 672.446901,406.283232 762.742917,300.370063 M544.61645,565.030034 C590.100051,508.145519 641.588833,449.520748 761.11979,313.649146 M544.201294,561.712211 C603.372071,490.198814 664.93374,420.134665 765.024004,312.552395 M553.336111,560.605415 C617.687334,488.358799 678.322143,415.577973 761.014525,322.969714 M556.351714,561.979879 C612.714128,497.547829 669.424716,430.7815 763.038172,325.384181 M563.946931,560.474758 C627.752462,497.036288 692.594197,422.122581 761.127272,333.506715 M566.073024,563.161384 C606.505587,514.580883 645.794271,467.41394 763.334449,337.316952 M577.213173,564.25594 C622.134228,509.723544 668.538296,453.817663 763.831,347.434754 M576.082564,563.084329 C647.880948,480.361657 722.017838,393.103367 762.497786,348.573412 M586.458247,562.878557 C643.951447,494.817906 703.395661,426.599485 766.354097,358.070195 M587.061633,561.499725 C649.438656,490.738798 712.979049,418.65254 762.9059,361.424021 M596.315841,564.282389 C641.571559,514.618628 683.944578,460.967512 762.821291,373.120977 M599.421442,563.965848 C657.110745,496.829983 714.598724,431.619633 763.817189,373.553014 M608.463194,560.60928 C655.276805,509.856679 704.441538,454.860324 763.841707,385.5142 M610.464749,561.223107 C653.576095,510.651947 697.386247,458.444409 762.403325,384.990669 M621.598403,561.394529 C667.161273,502.848914 717.536005,447.024227 764.381619,400.137442 M619.667851,561.672372 C649.519334,526.556443 683.710172,489.42557 763.703267,397.406604 M627.898763,565.445139 C662.647124,518.279554 702.786189,479.989973 766.036972,406.183573 M629.712156,564.169446 C683.168381,506.708905 734.199648,444.958415 762.148245,408.801891 M642.264666,560.112413 C682.177241,518.228795 723.343253,474.35493 763.184688,420.431331 M642.14791,564.209539 C675.73306,527.795074 708.648354,487.991112 761.737824,422.834032 M648.784372,563.761233 C676.684485,529.297672 707.773078,495.823101 764.754573,433.327681 M649.695206,562.60234 C679.0614,531.264859 705.548828,499.448185 764.990779,435.214052 M660.912573,559.01451 C681.752567,531.944112 711.009145,508.423796 760.474769,449.254462 M662.453727,564.061716 C694.750457,525.378095 726.085164,490.849267 762.933361,447.955703 M671.838354,560.286675 C701.77876,529.340811 731.2418,499.852899 762.819137,455.206529 M672.97639,562.467368 C701.276166,530.009968 728.806161,499.640966 765.288027,459.040592 M686.817208,559.488248 C705.796628,538.350359 717.553101,518.792407 759.984767,470.313957 M682.876662,561.357198 C714.688312,530.86739 743.147701,496.390003 765.057105,469.18516 M695.796037,563.400846 C707.924842,545.391983 728.173161,527.074273 767.141215,480.198207 M695.516051,564.239813 C708.339107,544.019143 725.020078,526.79867 763.834528,483.134341 M705.382085,563.80689 C720.462685,542.755123 737.943912,528.096131 766.399443,491.101831 M706.035559,563.661731 C719.226061,547.180711 733.861841,528.142324 763.837275,492.728772 M714.092183,563.845762 C726.315165,549.799801 741.856902,532.230626 762.78076,508.018187 M716.667407,564.501045 C731.003267,545.427288 743.645292,527.920722 761.936815,505.972004 M725.04139,559.917071 C735.626166,550.144177 752.937872,528.57336 759.466058,521.047597 M723.486189,564.808181 C736.036854,551.718898 744.696319,538.338735 764.970839,518.32416 M737.19223,560.036808 C746.296681,556.725708 754.100183,544.573248 762.48446,535.300605 M735.720603,563.099556 C742.706343,557.327506 750.631547,549.648726 764.494409,529.542697 M745.323635,561.967057 C755.143791,557.45244 759.333949,546.341018 763.962552,541.254141 M745.784894,563.424792 C750.525876,560.481752 751.693789,555.556233 764.091692,542.976064 M758.978208,564.784225 C757.854175,559.087433 761.542122,559.16272 764.977197,556.155791 M757.633416,562.328333 C760.079227,560.589138 762.637787,556.970862 764.634235,555.030635" id="Shape" stroke="#FFFFFF"></path>
                    <path d="M1.44985719,2.65635869 C238.507447,1.84993278 477.266651,2.67398297 759.216016,5.41371434 M3.75811301,3.67329652 C295.878631,5.73492886 590.906387,5.2072555 759.877832,4.71134577 M759.913861,4.69345105 C764.943362,154.109209 764.859507,305.605361 758.562248,559.765576 M759.674701,4.17905493 C757.076329,171.841299 756.583654,340.164091 759.526779,561.853091 M759.00886,559.781506 C525.960675,565.804468 290.345842,566.68288 2.07175083,560.06757 M760.146238,561.319793 C458.050714,566.438598 157.145777,566.263017 3.13289808,561.906306 M4.13861447,560.04196 C0.0866064998,447.430664 -0.437497857,335.160211 4.15062757,3.54328058 M2.4048282,561.245243 C1.80229796,447.04697 2.10789758,331.842301 2.53454209,4.6814637" id="Shape" stroke="#000000" stroke-width="2"></path>
                </g>
                <g id="Group" transform="translate(571.470703, 19.877372)" fill="#000000" font-family="sans-serif" font-size="20" font-weight="normal">
                    <text id="Players">
                        <tspan x="0" y="19">Players</tspan>
                    </text>
                </g>
                <g id="Group" transform="translate(569.026367, 73.247489)" fill="#000000" font-family="sans-serif" font-size="20" font-weight="normal">
                    <text id="Kerem">
                        <tspan x="0" y="19">Kerem</tspan>
                    </text>
                </g>
                <g id="Group" transform="translate(706.305664, 73.325614)" fill="#000000" font-family="sans-serif" font-size="20" font-weight="normal">
                    <text id="5">
                        <tspan x="0" y="19">5</tspan>
                    </text>
                </g>
                <g id="Group" transform="translate(567.987793, 112.771415)" fill="#000000" font-family="sans-serif" font-size="20" font-weight="normal">
                    <text id="Selim-(You)">
                        <tspan x="0" y="19">Selim (You)</tspan>
                    </text>
                </g>
                <g id="Group" transform="translate(705.430176, 109.622001)" fill="#000000" font-family="sans-serif" font-size="20" font-weight="normal">
                    <text id="8">
                        <tspan x="0" y="19">8</tspan>
                    </text>
                </g>
                <g id="Group" transform="translate(569.639648, 155.850028)" fill="#000000" font-family="sans-serif" font-size="20" font-weight="normal">
                    <text id="Muslim">
                        <tspan x="0" y="19">Muslim</tspan>
                    </text>
                </g>
                <g id="Group" transform="translate(551.607422, 61.230887)" stroke="#000000" stroke-width="2">
                    <path d="M1.93424672,2.02345714 C49.795091,0.583836072 98.3062667,1.97394138 183.549305,2.60887316 M1.20248695,1.24738231 C72.6111147,2.23387615 145.904828,2.54163254 183.63579,1.32394129 M181.540295,1.64894321 C185.102693,51.1062958 183.099929,103.642778 185.285848,130.125623 M183.245143,0.371239484 C182.816523,49.248347 184.537927,97.9959998 183.101282,130.896652 M182.967679,133.784178 C132.061419,131.061182 82.6811004,131.818799 1.05204117,131.92916 M183.728616,130.976383 C129.188661,129.548532 73.3450093,130.867326 1.89513324,132.82629 M0.0453192014,132.452781 C1.74081598,101.75177 3.63427334,70.3695138 0.0850052256,1.2872456 M1.93717907,132.420631 C1.7508712,80.9898089 2.43239884,31.0763222 1.40220268,1.72555545" id="Shape"></path>
                </g>
                <g id="Group" transform="translate(706.401367, 150.854911)" fill="#000000" font-family="sans-serif" font-size="20" font-weight="normal">
                    <text id="6">
                        <tspan x="0" y="19">6</tspan>
                    </text>
                </g>
                <g id="Group" transform="translate(276.706055, 65.792411)">
                    <polyline id="Path" fill="#000000" points="2.42573699 0.750325801 202.620288 1.87275464 203.382555 216.725532 1.22138861 217.103519"></polyline>
                    <path d="M1.37111312,1.0015783 C46.5648191,2.90353865 86.7756779,2.48461152 201.630127,1.83567825 M1.06148352,2.87081811 C61.4005421,1.58024592 122.104361,1.45728294 201.922657,2.53607833 M200.613634,1.58139483 C198.946259,45.5173373 199.053129,90.299667 202.368452,215.907851 M201.602346,2.5162261 C200.190799,83.885048 199.241023,166.699442 200.964623,217.325479 M201.138562,216.959069 C143.779041,218.508292 83.9450945,217.824308 3.98138118,216.70503 M202.465417,217.557403 C126.573905,220.169632 51.2294663,218.7861 2.18712275,218.056192 M1.94932692,215.719369 C2.13584169,165.003819 2.47618972,108.562141 1.21847255,1.01848326 M1.50622363,216.975539 C0.0812346382,151.291605 0.950997305,83.852039 1.82798033,1.73359744" id="Shape" stroke="#FFFFFF" stroke-width="4"></path>
                </g>
                <g id="Group" transform="translate(294.961914, 87.629325)" fill="#FFFFFF" font-family="sans-serif" font-size="20" font-weight="normal">
                    <text id="_______,-kid">
                        <tspan x="0" y="19">_______, kid</tspan>
                    </text>
                    <text id="tested,-mother">
                        <tspan x="0" y="42">tested, mother</tspan>
                    </text>
                    <text id="approved.">
                        <tspan x="0" y="65">approved.</tspan>
                    </text>
                </g>
                <g id="Group" transform="translate(43.275879, 317.422782)">
                    <polyline id="Path" fill="#FFFFFF" points="5.69295436 2.59980119 204.646627 5.29809285 197.883316 220.95403 5.0418145 218.881943"></polyline>
                    <path d="M1.10714198,0.850290354 C56.1949955,3.52525937 106.912736,5.36708879 201.845579,3.92863506 M2.14643892,4.75332916 C77.5311248,5.20552351 153.844611,3.1806993 202.040594,5.46785802 M201.654344,7.2717048 C207.632394,55.3875318 202.520758,110.660084 202.140574,222.598096 M203.098015,2.28150371 C201.147124,69.9548798 202.236465,132.585673 201.772195,218.617924 M203.797642,223.379567 C126.989957,222.725694 52.1649422,222.747127 0.701491717,219.160785 M200.466898,221.044387 C135.890986,219.352781 69.0030301,221.016414 3.47677126,220.679757 M0.0524636039,219.520095 C6.46361338,159.417755 1.24971041,101.447752 5.44303401,3.91309219 M3.19902722,221.16018 C-0.851308723,147.944066 -0.784767257,74.9038752 3.24759553,3.75365731" id="Shape" stroke="#000000" stroke-width="2"></path>
                </g>
                <g id="Group" transform="translate(57.655552, 341.284877)" fill="#000000" font-family="sans-serif" font-size="16" font-weight="normal">
                    <text id="Oedipus-Complex.">
                        <tspan x="0" y="15">Oedipus Complex.</tspan>
                    </text>
                </g>
                <g id="Group" transform="translate(278.902832, 315.704032)">
                    <polyline id="Path" fill="#FFFFFF" points="2.2272281 6.52767992 201.281162 0.957924251 207.605051 220.853016 3.00565749 221.546818"></polyline>
                    <path d="M6.60085094,5.67589253 C66.5798354,-1.83083068 128.606065,-0.857123365 206.932363,6.06783968 M3.30940595,4.33465249 C65.3426194,-0.153641924 131.378181,3.31177779 203.631541,4.0921787 M202.284561,5.09503664 C206.216715,87.0057824 207.833201,168.887125 200.242638,217.436593 M202.673051,4.27720063 C203.609453,72.0666256 205.525646,136.834824 204.666145,219.233758 M206.678367,216.868812 C126.814822,219.542007 54.6559936,217.575933 3.29516483,220.355478 M205.339005,220.560186 C151.783743,217.363255 99.6501393,216.367841 5.62512609,217.915677 M4.96586869,222.758456 C2.63940964,165.294006 1.94610757,120.10298 6.66956802,7.41184233 M3.67712221,219.327154 C-0.457799815,166.853771 -0.436167321,117.257233 3.44583024,4.65348559" id="Shape" stroke="#000000" stroke-width="2"></path>
                </g>
                <g id="Group" transform="translate(302.964007, 335.623465)" fill="#000000" font-family="sans-serif" font-size="16" font-weight="normal">
                    <text id="An-M16-Assault">
                        <tspan x="0" y="15">An M16 Assault</tspan>
                    </text>
                    <text id="Rifle.">
                        <tspan x="0" y="34">Rifle.</tspan>
                    </text>
                </g>
                <g id="Group" transform="translate(518.067871, 314.707938)">
                    <polyline id="Path" fill="#FFFFFF" points="7.83755207 6.47618061 203.357747 7.77530449 201.366715 218.135032 3.21589721 218.028143"></polyline>
                    <path d="M1.98463457,0.29554582 C52.9153762,-0.33960545 102.750106,0.619764091 206.874552,7.48603237 M2.17828638,4.06163069 C74.1908672,3.07134847 145.828511,2.20974861 204.753844,2.77083745 M201.294832,3.99447152 C199.874069,56.9348066 201.427412,113.525142 202.02612,222.145652 M201.982783,2.4247912 C205.251151,79.4000203 207.430481,152.121053 202.128021,220.966611 M200.589267,217.919319 C153.088273,218.420459 99.8533269,214.986236 0.918629941,222.639964 M201.664028,217.703661 C140.348741,214.900935 76.6981899,214.150255 4.52358556,221.452659 M5.02387581,218.338144 C2.15264184,150.781761 2.75742156,83.89865 2.17868687,5.45829833 M5.64447806,217.826253 C6.74710864,142.551497 8.35314502,70.410153 3.50637695,3.92838935" id="Shape" stroke="#000000" stroke-width="2"></path>
                </g>
                <g id="Group" transform="translate(541.158482, 334.708984)" fill="#000000" font-family="sans-serif" font-size="16" font-weight="normal">
                    <text id="Throwing-a-virgin">
                        <tspan x="0" y="15">Throwing a virgin</tspan>
                    </text>
                    <text id="into-a-volcano.">
                        <tspan x="0" y="34">into a volcano.</tspan>
                    </text>
                </g>
                <g id="Group" transform="translate(635.630999, 153.440709)" fill="#000000" font-family="AppleColorEmoji, Apple Color Emoji" font-size="20" font-weight="normal">
                    <text id="👨‍⚖️">
                        <tspan x="0" y="22">👨‍⚖️</tspan>
                    </text>
                </g>
                <g id="Group" transform="translate(783.250698, 45.358259)" fill="#000000" font-family="sans-serif" font-size="20" font-weight="normal">
                    <text id="This-emoji-means">
                        <tspan x="0" y="19">This emoji means</tspan>
                    </text>
                    <text id="this-player-is-JUDGE">
                        <tspan x="0" y="42">this player is </tspan>
                        <tspan x="116.708984" y="42" font-family="Helvetica-Bold, Helvetica" font-weight="bold">JUDGE</tspan>
                    </text>
                </g>
                <g id="Group" transform="translate(660.000000, 101.000000)" stroke="#000000" stroke-width="2">
                    <g transform="translate(3.387974, 0.111607)" id="Shape">
                        <path d="M131.375414,5.02843893 C109.939671,15.1635143 23.3089827,53.2724205 1.76993006,63.3789709 M136.07748,0.20950025 C114.346862,10.7637547 22.471137,53.6226737 0.060990834,64.4533675"></path>
                    </g>
                    <g transform="translate(0.387974, 42.111607)" id="Shape">
                        <path d="M25.6120004,0.788881163 C18.3358326,6.39666266 16.4973883,9.91862257 0.401584056,26.2288122 M23.9678871,1.79396086 C19.1981996,4.14930285 15.3102031,8.38379245 1.0653755,24.1055229"></path>
                    </g>
                    <g transform="translate(0.387974, 61.111607)" id="Shape">
                        <path d="M34.3993153,0.333505692 C25.1836,1.40872714 21.215992,0.437330058 0.401584056,7.22881217 M32.755202,1.33858538 C26.2863399,-0.212276138 20.5331747,0.0859880191 1.0653755,5.10552294"></path>
                    </g>
                </g>
            </g>
        </g>
    </g>
</svg>