<?xml version="1.0" encoding="UTF-8"?>
<svg width="969px" height="569px" viewBox="0 0 969 569" version="1.1" xmlns="http://www.w3.org/2000/svg" xmlns:xlink="http://www.w3.org/1999/xlink">
    <!-- Generator: Sketch 52.6 (67491) - http://www.bohemiancoding.com/sketch -->
    <title>Group 2</title>
    <desc>Created with Sketch.</desc>
    <g id="Page-1" stroke="none" stroke-width="1" fill="none" fill-rule="evenodd">
        <g id="Group-2">
            <g id="second">
                <g id="Group" transform="translate(0.852539, 0.639614)">
                    <path d="M2.86020027,17.1072137 C9.73956094,13.8302098 8.62024084,11.9184136 17.578641,4.87956123 M5.60312822,17.7823901 C6.01761642,13.8585132 10.4338854,11.7888674 15.8285633,3.67635732 M0.907590967,29.2839193 C9.5102692,21.1328141 17.5754447,21.4709828 22.2791842,5.29567912 M3.73845834,30.0829449 C10.3441795,20.9835165 21.4881681,10.0890417 25.7327718,5.4263616 M7.38092616,38.007305 C11.7481285,32.0135543 22.1029189,23.0736882 36.2979827,5.61935707 M3.83538502,43.1907891 C10.6071676,35.296372 18.98517,24.9750007 36.6600988,5.3238348 M0.806924539,57.3552193 C13.00409,36.8741097 27.9688277,32.2681357 46.8776677,4.48963154 M4.20456449,52.8334612 C18.0323109,37.1979529 30.7631818,21.9646271 45.8986268,5.2093928 M1.12877024,66.1491442 C21.8196724,49.8965518 36.9884065,30.1878729 57.2151384,7.43811875 M2.3815271,65.9754485 C21.0409102,50.6796766 35.7438245,32.4617697 56.1848672,3.21664154 M4.63711267,74.3269459 C25.9313199,53.950747 48.0474717,27.3799615 63.8237006,4.24252866 M2.80590906,76.2972321 C28.2006367,52.9304359 51.592092,24.3830098 66.690878,5.76239012 M7.9390075,93.0725843 C25.8995742,66.3843062 51.6796484,41.1057879 77.1580662,6.30166498 M2.85289348,89.2624959 C25.8447096,61.8418727 52.0338974,36.325395 77.7117642,5.85915074 M3.92685762,100.945823 C29.1445983,74.4865719 52.6482164,46.5677361 90.2393533,8.01042517 M4.86465132,101.185337 C21.7030929,78.6557177 43.9651312,56.7996941 89.3531777,3.42763873 M1.02764924,114.23839 C36.0997561,78.4286724 70.2219336,33.0167221 99.2800863,8.13480044 M5.46207748,116.523926 C36.0431084,78.5448468 70.8639817,38.7996279 98.2188171,3.60927255 M7.89159776,124.877236 C27.2569613,97.3760271 48.4020833,75.6178358 112.309196,3.18687575 M4.29593668,126.721267 C40.8057393,88.4126076 76.8574323,46.4554433 112.097928,5.07867378 M4.64138382,138.780696 C41.6424242,91.7849523 78.0619131,47.4881431 121.14096,1.5545394 M5.3585995,139.498855 C44.22452,96.074576 81.6740833,48.5991072 121.996744,7.1108767 M2.84109436,149.988199 C34.2501856,108.620411 75.2969141,68.7305737 128.62424,5.85764468 M5.01548345,149.923891 C37.4998743,115.087089 67.4090619,76.8114877 131.450223,6.87499 M5.26649773,166.440514 C32.011231,127.863049 64.2636913,95.7223267 141.35493,6.67097626 M2.23793324,165.280301 C53.201048,104.798357 102.409254,49.1187461 141.303755,6.16191536 M5.82479147,174.33453 C39.7435444,133.087498 79.4351396,94.9792469 149.287733,5.7087402 M4.76269089,177.127256 C41.2266577,129.644225 79.5847991,84.6878846 151.057467,5.24730049 M2.23766044,187.377665 C56.854312,130.842344 108.967423,68.5305585 160.089639,4.63947048 M2.82868444,189.023551 C44.7209204,141.139789 90.4654683,89.305532 162.364608,4.88088844 M0.99066611,198.89152 C53.6839462,140.141816 103.069277,87.9438732 170.329165,6.58247232 M3.86654485,200.623932 C63.6265493,129.178324 123.065538,58.0647632 174.550577,3.75887443 M3.54090641,211.561794 C70.9888929,135.666681 137.7214,54.8420677 183.357642,7.54342122 M3.35538437,212.33382 C59.4797138,148.404833 114.915824,84.4453166 185.4564,3.63387003 M3.85418985,222.763125 C71.2660952,150.294803 130.700293,78.4252439 196.681828,4.59706513 M4.57172231,224.677524 C59.7916333,159.186401 116.788891,92.5332421 193.723339,6.0512413 M4.22875872,235.106462 C42.221275,189.441274 81.8000768,141.564611 206.287013,5.45498453 M4.40642881,235.611232 C64.0240639,167.61379 123.91377,98.6341535 204.975164,5.34742315 M2.39840628,246.723029 C82.4350978,164.10353 155.52773,80.6314303 218.520156,5.26409242 M5.2668645,249.497398 C79.0337968,163.161902 151.034144,79.0708712 215.739495,4.07225553 M5.74001665,261.038825 C47.645135,211.432233 90.6893822,161.805156 224.572431,3.1146289 M4.80538246,260.152045 C53.6490046,204.919663 99.248503,153.852347 226.204629,5.08025829 M6.17949041,274.447106 C64.8917539,202.735054 120.713333,133.780258 239.653829,7.40072008 M4.39784653,272.893492 C71.4590047,192.56355 137.191911,114.583211 236.174805,3.90555327 M2.57646223,284.183055 C73.8955052,208.247899 146.664634,126.31654 247.014608,2.79473088 M4.51884605,286.073356 C62.6822717,218.716313 118.559251,154.345463 248.027527,3.91482765 M4.67516992,297.958628 C71.472241,223.69799 133.017425,150.345898 256.484608,2.94584081 M3.08508244,297.977458 C66.0770384,225.258526 126.163986,155.63154 258.335251,5.51653979 M5.10264218,309.600954 C99.1775439,198.226347 198.437249,89.0293849 270.201951,7.08678702 M2.96923557,308.866484 C77.4289127,224.737134 154.86524,137.255938 268.457506,5.79295193 M4.80275157,323.717912 C70.0653399,245.988838 135.784257,173.585704 280.158169,3.68722163 M4.94981329,321.403873 C72.7909132,243.940771 143.434283,162.236382 280.695568,5.82246404 M2.96051848,334.298063 C79.0396814,254.561759 150.601542,172.299681 289.17108,4.24134079 M4.89712606,334.726769 C95.7239571,230.226386 187.693412,125.996569 290.246254,4.90350612 M2.83315337,345.97297 C114.333411,217.224092 227.12269,85.2586362 301.046441,3.89196851 M4.28629786,347.104728 C91.2387094,245.809891 175.698641,147.268077 301.678085,4.96403875 M2.50863836,358.316022 C113.361163,231.675287 221.442723,110.820341 311.388817,5.91202322 M3.46801442,358.995553 C66.2563295,289.377332 127.933671,217.762247 312.405764,5.48303226 M5.0422496,369.871939 C71.785192,291.780132 137.267575,217.630678 323.682219,3.16937181 M3.91158976,370.570767 C86.3845278,274.247784 168.569089,181.22343 322.485579,4.23697064 M3.41242038,383.010399 C125.730469,247.128571 243.556253,109.552674 333.005419,5.60263396 M4.63656909,382.692891 C77.5991343,293.628839 151.340965,208.02358 332.632117,5.1557455 M5.81113836,393.30602 C99.6281894,284.757928 198.961215,171.664976 343.683114,5.92702561 M4.14992218,395.139902 C129.101834,251.856136 253.867942,107.905733 343.520771,4.6581164 M5.20803467,407.248231 C137.098885,251.479007 275.544587,92.8290152 353.497513,6.6571385 M3.80894277,407.683047 C82.4198445,317.488999 161.399671,226.61293 354.004189,5.20244741 M3.47523715,418.759009 C124.624526,282.924218 241.606618,144.13926 363.409806,4.25088745 M4.32972841,419.506976 C140.845822,255.728614 280.757757,94.9172939 364.791437,5.76791798 M4.44325902,430.322899 C93.2250859,326.653647 186.545099,222.26565 375.389569,5.47875353 M4.53441832,432.273746 C98.4362702,323.860805 191.430783,215.601241 374.772624,5.73611759 M5.57523505,442.518172 C120.971812,313.000288 237.867398,177.441213 385.688998,5.75494572 M4.25042949,443.228987 C144.994383,279.235182 288.750228,114.531979 384.718135,5.19720737 M3.30480348,456.076246 C132.549167,310.507372 262.107049,162.473805 395.636855,4.8421105 M4.07333863,456.43632 C114.310774,330.176967 223.445712,205.41456 395.297575,5.0296297 M3.91034214,467.812848 C137.362501,319.819406 265.327702,170.769228 405.488461,4.20133186 M3.46611829,467.883518 C144.032501,302.854359 288.86791,137.738728 406.554766,5.42510821 M3.82861425,482.106273 C139.245994,328.794427 276.191153,171.460387 416.2757,5.94213129 M4.29778269,481.335765 C132.504008,336.44005 260.646723,189.164173 416.582752,5.21364778 M3.72900459,494.028541 C149.514212,327.47247 294.859063,163.838162 426.857021,3.77246777 M4.14262381,493.441814 C107.342982,377.382153 207.237988,260.444786 427.398792,5.18853456 M4.90746042,503.450112 C151.708619,330.313989 304.3331,157.442351 438.967433,4.34873777 M4.6991524,504.213704 C125.479825,365.919414 245.64413,228.084002 438.819366,5.83133591 M4.08043248,517.944592 C126.248431,381.378345 244.957634,241.401362 447.868507,5.4257753 M3.40903893,517.106459 C137.159363,365.323626 270.120624,210.05274 449.535173,5.83690048 M2.65911109,531.119896 C179.989664,333.277104 354.94673,132.941139 460.19838,4.40685182 M3.55634969,529.724261 C164.116159,354.421552 318.896613,173.859782 458.986129,4.63835815 M4.66307198,542.096504 C129.168425,397.327725 252.656545,255.085978 471.821748,5.29367634 M4.20619264,540.873697 C142.634434,381.923179 285.316915,217.310992 470.03637,5.73212005 M3.59451243,553.038625 C113.795701,433.0073 221.288335,313.019717 482.479871,4.83639532 M3.90395353,554.06993 C186.239945,342.310357 370.575863,130.459377 481.249251,4.80287856 M4.14431026,564.149488 C117.086024,428.75453 229.570716,297.983338 492.840571,5.88359276 M4.80635491,564.906983 C189.079374,347.326285 375.552909,132.967363 491.162345,4.24860731 M14.8904961,564.98366 C194.863692,359.503501 374.694259,153.01892 503.148233,3.53229013 M15.8049284,564.745064 C167.271589,386.285603 322.719563,207.873026 501.762444,4.50556119 M26.5301282,563.766599 C193.897284,380.88676 356.384115,193.355051 513.473804,4.87794643 M27.5828895,564.005113 C199.983688,369.050663 369.506841,174.480564 513.160558,4.17327634 M38.371654,564.156261 C188.532864,391.970103 338.067159,219.580007 522.364794,5.56445814 M36.732499,563.705414 C219.393692,348.732074 403.716174,137.068549 523.866917,4.13957012 M47.8000832,565.159045 C171.988369,412.222556 302.235905,266.090247 533.495275,6.33415924 M48.0452365,563.752537 C233.104795,346.6136 422.109155,128.435172 533.46597,4.50554119 M60.126988,564.879784 C165.665312,437.768549 275.29921,311.870749 544.715883,5.57782121 M57.9868,564.666329 C169.015582,434.311973 281.645741,303.967889 544.491382,5.51056941 M68.0405032,562.671749 C257.181253,357.674945 438.939771,145.634203 554.703814,6.28465305 M69.3721067,563.704921 C246.068299,355.266469 426.926275,149.327024 555.501041,4.45731593 M80.6553261,562.886649 C237.646093,388.199481 390.389677,210.637413 564.812828,5.39230123 M79.6402923,564.589723 C212.358292,414.547383 342.873276,265.099793 566.152051,4.63672312 M90.1627165,564.224632 C269.697082,358.702986 451.158143,149.157914 576.123247,3.93684974 M90.7297113,564.030427 C251.310785,379.388435 412.169653,193.638974 576.675734,4.25301462 M100.880497,563.484281 C223.977665,413.017905 350.654196,269.371704 587.435897,6.75752965 M100.552937,564.650009 C244.840472,391.18476 391.191752,221.335258 585.896574,6.10340489 M111.903051,564.112617 C308.742308,339.945778 503.480074,114.529681 598.146344,4.02788077 M111.271761,563.109721 C305.068964,348.234538 496.81386,129.408689 596.53145,5.0842609 M123.751327,563.955099 C288.285776,367.834524 458.112984,173.825189 609.358538,6.73400917 M122.372194,563.034101 C255.376072,406.862882 392.827832,250.555568 608.328282,4.84435962 M133.822835,563.805625 C301.771026,371.983168 472.86435,172.502901 617.159051,5.80574885 M132.539467,563.135967 C255.085471,423.776494 375.556382,286.396491 618.565268,5.29104968 M143.041647,564.756527 C319.388744,363.603509 494.999351,159.589264 629.811018,3.82137127 M143.933026,563.741415 C328.492917,356.538022 508.262814,148.662308 629.669825,5.86996096 M154.508397,563.948578 C334.914366,352.562537 520.427557,140.691466 639.204137,5.95758543 M154.46154,562.914827 C283.764198,412.535655 412.389558,264.582927 639.093589,5.69000459 M164.150283,564.720986 C304.926901,408.477103 441.31351,249.191203 651.504667,6.13953781 M165.257893,562.983864 C299.304637,410.147664 432.093776,258.343408 650.787415,4.44837296 M175.371064,562.761397 C353.512359,356.920627 531.0105,152.010912 661.805431,3.5908124 M176.154191,563.464467 C363.97673,346.396856 556.818628,125.145692 661.876375,5.75553971 M186.501063,562.655897 C376.167154,346.712273 564.768785,132.190112 671.975812,4.98343067 M186.756756,562.785861 C330.63956,392.426261 480.01837,220.357954 670.934762,5.2602597 M195.847165,564.039006 C323.062509,412.491158 451.527074,262.12213 681.311759,5.78785162 M196.721131,564.015551 C327.998036,415.925322 456.328588,269.777889 682.261087,5.17456909 M208.342817,562.143683 C384.199795,362.223422 556.853107,161.766221 691.585782,5.22297173 M206.827076,563.784322 C367.340791,384.554959 525.102838,202.319513 693.353078,5.59878524 M218.198028,562.751325 C394.397025,364.249602 569.786598,163.230619 704.096952,3.60612497 M217.65357,562.811242 C352.527594,412.355633 481.837365,261.943404 703.982685,4.64650679 M228.349372,563.541766 C411.902665,353.732666 591.62523,147.537557 715.120904,4.50308285 M229.053813,562.828659 C329.061357,449.835192 428.519009,337.127173 714.871074,4.16961363 M238.853923,563.397987 C429.608637,343.547437 619.743103,123.259615 725.759836,5.67805433 M238.174162,563.461914 C380.241987,404.005262 519.908116,243.504216 725.563631,5.08326688 M249.763497,563.137277 C345.748389,453.096957 444.718827,341.171605 734.192507,4.44368591 M249.55337,564.135498 C417.859003,370.358048 583.706398,176.933004 736.30496,5.09090893 M259.038294,562.589493 C385.875273,425.254537 507.228789,285.352611 745.52424,4.61106157 M260.261234,564.726312 C440.008371,355.803812 622.504404,146.511736 745.913885,5.20926342 M271.821138,564.528219 C427.684897,386.068671 585.206631,205.728149 757.636919,5.83970279 M269.997826,564.269832 C454.468554,355.394373 638.235672,144.575224 756.858448,4.29333522 M282.431412,564.775476 C410.145504,414.868257 538.730109,266.80408 765.214755,7.20640689 M280.712439,564.23981 C405.659363,417.579978 531.168746,273.368935 764.106673,8.5802488 M290.615064,565.551723 C389.259935,446.574795 488.305263,332.636076 764.138228,19.7099566 M291.278583,563.873285 C418.25439,425.192788 539.816892,284.976223 764.345509,20.5689577 M303.394604,564.825857 C455.951656,392.921919 604.893248,219.374919 763.703735,32.8892517 M302.568988,564.295572 C419.369843,427.796214 534.53612,294.747858 764.225479,32.4133766 M312.919104,563.265211 C414.122622,445.836359 520.599243,325.179683 763.543353,45.6522733 M313.730601,563.845271 C479.026907,371.773975 648.363573,179.312562 765.305443,44.3263447 M323.914199,563.185558 C476.456226,382.345623 636.185641,201.430318 764.371778,57.9507304 M324.059591,563.799262 C471.562712,398.819795 617.942698,231.220197 764.424536,57.4292734 M334.732086,562.701106 C490.517434,389.285657 642.574232,212.066675 765.980271,67.2847694 M334.076342,563.697705 C430.819964,453.485075 528.749645,341.129656 764.521112,69.0318549 M345.601525,564.274501 C450.197738,446.530813 556.780211,327.465767 763.630594,82.807684 M345.80046,563.869044 C455.959004,441.116696 565.706892,315.996435 763.851685,81.5117725 M355.677837,562.466828 C454.822285,442.512501 557.878108,324.884624 765.329251,92.4570765 M355.825766,563.955001 C501.651552,394.156159 648.341184,226.40272 763.690167,93.8208619 M364.892909,565.287608 C498.146965,413.259744 628.366612,265.590603 765.74113,106.433115 M366.795305,563.835581 C473.488875,439.649273 583.869383,313.755611 763.866507,106.138369 M377.405187,562.744799 C521.962568,391.755356 673.527,217.761196 763.46374,117.929697 M377.276335,563.754072 C467.63606,465.060903 555.479749,363.809503 764.065937,117.777111 M387.44968,564.1948 C485.396998,448.044966 584.981093,331.447551 763.821154,130.039156 M386.835337,563.642039 C532.893102,396.732528 680.216739,228.36249 764.247903,129.663186 M398.787962,563.692443 C516.335821,426.188527 634.438334,291.082963 764.057947,142.656972 M398.713009,563.244332 C515.259417,424.070915 633.537898,288.652189 764.265015,142.815684 M407.358167,564.541 C551.405607,399.70842 692.255063,237.55861 765.813436,153.212937 M408.899268,563.044081 C512.150028,444.237092 615.868343,325.030774 764.362275,153.852848 M420.724992,563.84218 C493.163486,474.199768 572.761946,384.890124 763.435319,166.549405 M420.00825,562.787696 C509.469351,457.585547 600.926838,351.643407 764.71573,166.845328 M431.129696,564.246129 C563.861597,410.053901 695.002103,259.324109 766.053921,179.652461 M430.353308,564.009871 C514.304157,470.240951 597.353722,373.364917 764.331702,179.222348 M441.355756,564.936168 C554.858934,430.250727 668.392767,298.916586 763.545652,190.963588 M441.439704,563.764929 C535.153873,453.746728 629.782197,344.100924 765.482193,191.470665 M450.420288,563.618192 C568.507404,425.303081 682.207247,291.481086 764.717512,204.981379 M451.790508,563.525018 C516.742672,491.320176 579.446944,417.827602 764.456967,203.084163 M460.589264,563.804368 C572.819139,434.182774 684.510383,307.834105 762.637622,214.688082 M461.07704,562.864342 C576.042683,433.763253 688.039673,304.177273 764.107463,215.651146 M472.228311,564.507437 C537.316924,492.404449 599.19598,418.690413 764.949589,227.674444 M472.230592,564.85038 C552.598028,472.110476 634.044284,378.091462 764.843331,227.218306 M482.050651,564.491919 C551.251351,486.414154 613.069929,412.936044 766.59454,240.537747 M481.995879,563.574781 C565.88993,466.1071 650.641703,367.019072 765.299917,238.998187 M493.272848,565.99869 C555.496462,490.919354 621.781944,415.345542 763.010049,250.42972 M492.484913,563.308858 C565.793541,481.770736 636.391852,398.080034 764.646052,250.94151 M502.657962,563.678486 C576.118621,476.088781 651.57189,391.047368 766.169705,263.744616 M503.68598,564.153597 C555.940388,501.992862 609.915132,439.338266 764.803063,263.431992 M515.103558,565.987415 C592.908528,475.95435 667.498659,385.211642 764.054711,276.95963 M514.81858,563.193304 C597.717448,465.538681 681.033793,367.211746 763.56444,276.784779 M526.004361,564.419273 C575.819448,509.043066 620.984109,455.590449 763.160943,287.50275 M525.834284,564.006852 C580.981711,501.435494 635.054533,437.345487 764.598501,287.712328 M537.677507,564.290146 C617.1545,474.787305 695.87901,383.870443 765.212399,301.893501 M535.458824,564.050352 C610.625331,471.272848 689.96516,381.008279 765.399584,300.836145 M545.100044,561.695075 C598.18553,506.305043 647.103384,447.309982 762.819125,315.141161 M545.475673,564.332017 C599.915917,502.938819 653.830609,441.649217 763.678558,313.937047 M554.558047,562.211595 C599.798438,515.453349 641.601987,463.956494 765.621915,326.907315 M556.210664,563.369506 C621.14951,486.011212 685.712658,412.47958 764.374266,325.886819 M568.868667,566.288185 C627.537429,493.690896 691.367971,415.922852 763.033215,337.44819 M568.175025,562.771185 C636.425103,482.916714 707.388494,401.217417 763.851188,338.38184 M577.857635,566.091043 C618.726997,518.735126 660.333345,472.570286 765.012226,347.700436 M579.556513,563.52737 C641.211323,486.765943 704.826083,413.771277 764.123755,349.556184 M587.995241,564.042344 C628.529241,516.495005 667.072999,475.814379 762.284712,360.128686 M587.926645,562.950815 C659.260283,479.784253 728.851757,401.956275 764.926012,361.093333 M596.698524,566.106451 C638.207149,514.640943 673.856345,473.657979 761.587305,374.481251 M600.49869,562.419277 C648.43122,503.288505 701.805317,442.349312 764.671529,373.528106 M611.376687,563.300989 C665.90605,499.287491 726.687023,431.523424 764.860802,385.838342 M611.141271,565.010199 C645.317661,527.386163 678.399832,488.781494 763.524525,385.353017 M620.403115,561.586729 C675.034326,498.015531 726.932215,442.21642 764.670043,395.800559 M619.485624,563.863836 C676.136872,499.837063 734.580535,435.203971 765.312526,396.756152 M633.50969,564.152486 C661.447106,525.785181 701.972993,480.220315 764.054939,409.004113 M630.800722,562.335971 C682.064003,502.989346 734.378459,441.480564 763.700383,409.71785 M645.520425,560.849385 C672.345038,530.063572 706.000094,486.977108 767.236349,424.165919 M642.768092,563.002279 C676.950849,520.935911 708.789339,479.760613 764.438173,421.405215 M656.133732,566.723024 C697.180085,513.342669 744.764961,462.963163 767.277399,430.653665 M654.207887,564.258896 C693.128596,519.530472 730.725822,477.819458 764.440745,434.529241 M661.536808,565.498362 C686.958696,530.12221 716.603449,499.572579 761.37269,450.808928 M662.228232,565.207883 C686.832006,533.976881 711.238543,508.128444 763.984689,446.627018 M677.735146,566.335922 C704.572399,533.894865 729.870522,498.86615 766.43749,462.747655 M673.06759,562.762142 C711.753568,521.663489 746.121238,483.902723 762.665511,457.525859 M681.425644,561.267319 C719.247182,528.49913 744.666787,490.931161 767.735295,470.096016 M682.712473,561.805279 C717.113883,528.112074 747.576785,490.816975 766.046083,470.100406 M698.621608,566.570264 C711.191607,539.893829 732.825315,517.394516 766.127068,480.346564 M695.584939,563.504104 C715.685601,539.713065 737.416484,515.442132 764.968386,481.566297 M704.621692,564.89827 C730.03504,540.489726 748.952363,511.843579 762.040177,498.987946 M704.574034,564.375838 C719.016187,548.570321 733.362859,532.862452 765.584946,496.547373 M715.259132,567.636816 C728.968148,547.537894 747.783732,526.153432 767.437336,511.634615 M716.347527,565.581777 C735.639533,541.930149 752.397713,525.503848 765.390279,510.142886 M723.590392,560.806601 C736.712359,554.885062 748.094194,545.680334 761.065846,522.382984 M728.103059,563.76805 C734.516543,554.638814 741.854029,546.097661 762.532624,521.221165 M735.144404,567.419711 C747.140199,549.916355 762.210537,542.538209 761.146232,531.714694 M736.879875,564.359277 C744.857462,554.325901 750.659126,545.605977 764.565087,531.260367 M747.891505,565.609326 C755.886493,557.872511 759.181231,549.784463 764.62149,542.852766 M747.590268,564.625784 C749.947948,560.447441 754.862839,555.734694 765.757385,545.642146 M759.584457,562.991084 C758.755019,562.082141 760.698362,561.968274 765.993542,558.160836 M759.003777,562.986775 C759.45422,561.648689 762.279258,560.394769 763.994172,556.574607" id="Shape" stroke="#FFFFFF"></path>
                    <path d="M2.7808259,5.44714062 C260.846319,0.241150756 516.881639,-1.53137346 760.179115,4.37258556 M3.58723887,5.40755682 C177.57725,8.19970422 352.171253,9.0679621 760.900109,4.24199355 M760.570259,5.25648486 C762.112862,218.557426 763.285372,432.229142 760.254926,563.440205 M761.316051,5.40596125 C763.591443,165.931487 764.367278,328.04776 761.752565,561.555023 M760.191321,561.957563 C512.398943,562.409961 265.036254,563.966114 4.08370557,561.134665 M761.65848,562.353726 C592.168516,562.557714 424.076831,563.661999 4.16382829,561.538432 M3.07433629,561.070249 C2.69092835,436.599547 2.73168453,314.781944 4.3481185,5.82798951 M3.47084752,561.863862 C2.86936455,399.719198 2.65563205,236.4124 3.2714713,4.59097729" id="Shape" stroke="#000000" stroke-width="2"></path>
                </g>
                <g id="Group" transform="translate(572.030692, 20.511196)" fill="#000000" font-family="sans-serif" font-size="20" font-weight="normal">
                    <g id="Players">
                        <text>
                            <tspan x="0" y="19">Players</tspan>
                        </text>
                    </g>
                </g>
                <g id="Group" transform="translate(569.586356, 73.881313)" fill="#000000" font-family="sans-serif" font-size="20" font-weight="normal">
                    <g id="Joe">
                        <text>
                            <tspan x="0" y="19">Joe</tspan>
                        </text>
                    </g>
                </g>
                <g id="Group" transform="translate(706.865653, 73.959438)" fill="#000000" font-family="sans-serif" font-size="20" font-weight="normal">
                    <g id="5">
                        <text>
                            <tspan x="0" y="19">5</tspan>
                        </text>
                    </g>
                </g>
                <g id="Group" transform="translate(568.547782, 113.405239)" fill="#000000" font-family="sans-serif" font-size="20" font-weight="normal">
                    <g id="Jane-(You)">
                        <text>
                            <tspan x="0" y="19">Jane (You)</tspan>
                        </text>
                    </g>
                </g>
                <g id="Group" transform="translate(705.990165, 110.255824)" fill="#000000" font-family="sans-serif" font-size="20" font-weight="normal">
                    <g id="8">
                        <text>
                            <tspan x="0" y="19">8</tspan>
                        </text>
                    </g>
                </g>
                <g id="Group" transform="translate(570.199637, 156.483852)" fill="#000000" font-family="sans-serif" font-size="20" font-weight="normal">
                    <g id="Harry">
                        <text>
                            <tspan x="0" y="19">Harry</tspan>
                        </text>
                    </g>
                </g>
                <g id="Group" transform="translate(551.167411, 60.864711)" stroke="#000000" stroke-width="2">
                    <path d="M1.21573195,0.59680164 C43.9889105,1.82168159 88.5219444,4.01960519 183.399163,1.07332391 M1.05249193,2.83814798 C60.7959726,3.2657918 118.805476,2.51731532 184.449001,1.81394048 M186.032311,1.79278296 C185.493953,51.5394674 184.716015,100.390097 182.849926,131.723226 M183.675834,2.27475615 C185.678927,43.6052348 184.384105,84.6682106 183.99837,132.231886 M183.150387,131.290265 C132.703515,133.268438 80.7131525,133.371616 0.00813093595,131.338019 M183.655096,132.081534 C148.132895,133.635051 110.763741,132.527728 1.82617378,132.084302 M3.03498688,132.701368 C1.17103452,93.9948508 -0.399914019,57.4241386 0.555600731,3.40287173 M1.48872161,132.930448 C1.70185091,106.638489 2.00516414,79.5621205 2.53339639,1.57733439" id="Shape"></path>
                </g>
                <g id="Group" transform="translate(706.961356, 151.488735)" fill="#000000" font-family="sans-serif" font-size="20" font-weight="normal">
                    <g id="6">
                        <text>
                            <tspan x="0" y="19">6</tspan>
                        </text>
                    </g>
                </g>
                <g id="Group" transform="translate(43.835868, 320.056606)">
                    <polyline id="Path" fill="#000000" points="3.05813706 3.33407512 202.783731 3.4299452 202.528247 218.430995 1.63537497 216.639044"></polyline>
                    <path d="M0.968097178,3.01889205 C46.8243163,2.25025416 94.1905127,4.42089886 201.252225,0.104983868 M1.69601128,2.16030304 C78.6142142,-0.000379250364 155.973183,-0.115007536 201.142483,2.78568698 M202.210506,2.88724364 C201.57858,63.4192407 203.274197,127.427877 203.164524,216.081403 M201.170758,1.87676734 C202.659349,72.0159414 202.962537,143.422164 201.68929,216.88125 M203.148152,217.880652 C155.324276,216.265307 110.996095,219.02602 2.40957072,215.842419 M201.065015,216.758566 C156.910793,217.510903 112.37733,219.099317 2.21757406,217.971595 M0.84351728,216.756384 C0.503662913,155.641242 0.0365424534,91.9862138 0.407773011,1.10606542 M2.40403459,216.868959 C2.16709434,150.70667 1.27089661,85.3766165 1.5560473,2.4681677" id="Shape" stroke="#000000" stroke-width="2"></path>
                </g>
                <g id="Group" transform="translate(62.593890, 337.342808)" fill="#FFFFFF" font-family="sans-serif" font-size="20" font-weight="normal">
                    <g id="Oedipus-Complex,">
                        <text>
                            <tspan x="0" y="19">Oedipus Complex,</tspan>
                        </text>
                    </g>
                    <g id="kid-tested,-mother" transform="translate(0.000000, 23.000000)">
                        <text>
                            <tspan x="0" y="19">kid tested, mother</tspan>
                        </text>
                    </g>
                    <g id="approved." transform="translate(0.000000, 46.000000)">
                        <text>
                            <tspan x="0" y="19">approved.</tspan>
                        </text>
                    </g>
                </g>
                <g id="Group" transform="translate(279.462821, 317.337856)">
                    <polyline id="Path" fill="#000000" points="6.28035176 5.8598904 205.412939 4.95378738 202.914305 216.823987 4.72573257 218.290923"></polyline>
                    <path d="M1.87645059,1.14664781 C52.9604254,3.45378491 99.4648677,-2.82418457 206.996147,3.96496106 M3.97612703,2.62788096 C83.4780279,1.75855501 159.070385,3.93130459 203.436338,4.42646417 M200.826814,1.03059658 C205.439568,78.0531666 207.907014,147.880967 204.604339,221.090725 M202.834787,1.91995413 C201.403843,72.5797347 201.697705,139.772827 202.280352,219.213592 M199.659817,215.43092 C136.537247,221.803927 78.2206436,216.082316 0.92769831,219.379246 M203.295902,216.923487 C135.232698,217.323134 67.8504036,216.711907 3.85175878,218.702169 M1.47456869,220.906925 C3.03201722,171.640749 3.30723548,120.596905 4.28268121,3.55549436 M4.93260637,217.7151 C1.3991927,153.064109 1.37107639,85.8969465 4.9250394,4.16626862" id="Shape" stroke="#FFFFFF" stroke-width="2"></path>
                </g>
                <g id="Group" transform="translate(303.419085, 337.459298)" fill="#FFFFFF" font-family="sans-serif" font-size="20" font-weight="normal">
                    <g id="Michael-Jackson,">
                        <text>
                            <tspan x="0" y="19">Michael Jackson,</tspan>
                        </text>
                    </g>
                    <g id="kid-tested," transform="translate(0.000000, 23.000000)">
                        <text>
                            <tspan x="0" y="19">kid tested,</tspan>
                        </text>
                    </g>
                    <g id="mother-approved." transform="translate(0.000000, 46.000000)">
                        <text>
                            <tspan x="0" y="19">mother approved.</tspan>
                        </text>
                    </g>
                </g>
                <g id="Group" transform="translate(521.364467, 318.341762)">
                    <polyline id="Path" fill="#000000" points="2.88469219 1.97689369 201.27893 0.184942571 202.006421 216.372512 3.60226137 215.212515"></polyline>
                    <path d="M2.41833076,2.24396861 C71.6724979,0.030008414 143.803952,2.40750507 203.461114,0.392022552 M2.72088209,0.699312194 C64.592342,2.15714282 128.083218,2.08468792 202.06949,1.32426317 M201.930801,1.61999238 C201.647328,75.1967841 200.606751,153.457277 201.994373,215.508508 M201.542359,1.31023493 C200.818028,62.0262567 200.090692,124.577961 201.784903,217.111772 M199.650914,217.703224 C137.902158,213.333522 71.8054698,215.407777 2.82357612,215.297022 M201.495201,217.277209 C155.853972,215.443708 109.55512,215.050249 1.22946155,215.792661 M0.270163884,217.064757 C1.76805935,159.521713 3.50162694,104.65494 2.17127025,1.80806919 M1.57010545,217.132478 C0.551377963,166.707134 1.45785037,116.606966 2.49837949,1.62503985" id="Shape" stroke="#FFFFFF" stroke-width="2"></path>
                </g>
                <g id="Group" transform="translate(534.537667, 332.102853)" fill="#FFFFFF" font-family="sans-serif" font-size="20" font-weight="normal">
                    <g id="Coat-hanger">
                        <text>
                            <tspan x="0" y="19">Coat hanger</tspan>
                        </text>
                    </g>
                    <g id="abortions,-kid-tested" transform="translate(0.000000, 23.000000)">
                        <text>
                            <tspan x="0" y="19">abortions, kid tested</tspan>
                        </text>
                    </g>
                    <g id="mother-approved." transform="translate(0.000000, 46.000000)">
                        <text>
                            <tspan x="0" y="19">mother approved.</tspan>
                        </text>
                    </g>
                </g>
                <g id="Group" transform="translate(636.190988, 154.074533)" fill="#000000" font-family="AppleColorEmoji, Apple Color Emoji" font-size="20" font-weight="normal">
                    <g id="👨‍⚖️">
                        <text>
                            <tspan x="0" y="22">👨‍⚖️</tspan>
                        </text>
                    </g>
                </g>
                <g id="Group" transform="translate(312.851144, 192.992188)" fill="#000000" font-family="sans-serif" font-size="28" font-weight="normal">
                    <g id="Submissions">
                        <text>
                            <tspan x="0" y="28">Submissions</tspan>
                        </text>
                    </g>
                </g>
                <g id="Group" transform="translate(180.472796, 251.059152)" fill="#000000" font-family="sans-serif" font-size="20" font-weight="normal">
                    <g id="Time-to-choose-the-funniest-combination">
                        <text>
                            <tspan x="0" y="19">Time to pick the darkest combination</tspan>
                        </text>
                    </g>
                </g>
            </g>
        </g>
    </g>
</svg>