<?xml version="1.0" encoding="UTF-8"?>
<svg width="966px" height="595px" viewBox="0 0 966 595" version="1.1" xmlns="http://www.w3.org/2000/svg" xmlns:xlink="http://www.w3.org/1999/xlink">
    <!-- Generator: Sketch 52.6 (67491) - http://www.bohemiancoding.com/sketch -->
    <title>Group 4</title>
    <desc>Created with Sketch.</desc>
    <g id="Page-1" stroke="none" stroke-width="1" fill="none" fill-rule="evenodd">
        <g id="excalidraw-2020314173545" transform="translate(-1966.000000, -4.000000)">
            <g id="Group-4" transform="translate(1966.000000, 0.000000)">
                <g id="Group" transform="translate(0.838030, 32.530239)">
                    <path d="M3.87593851,16.407935 C4.57520212,14.215918 9.83073418,8.52244638 17.0849911,2.10437713 M3.44185281,16.2571863 C7.50109776,13.8639691 8.7011144,9.87409488 15.7541124,2.45719559 M5.29234627,28.8072926 C9.18298736,18.5947199 10.0732548,13.6904441 27.1626336,5.28588484 M3.7611088,26.4430193 C9.1509089,19.1013391 15.92257,13.9543521 24.9264262,5.31751371 M1.12831493,41.2107504 C14.3944067,27.1261471 20.5093963,23.2574584 34.37554,6.38577285 M2.95929816,40.6021067 C12.9541964,29.8889564 18.9460457,21.3055911 36.7807948,2.4424653 M5.45624579,51.7413079 C16.9423335,37.4236966 27.2699373,28.5675025 46.8768641,4.70206483 M4.1940874,54.0937476 C14.0870661,40.1363286 26.850601,27.3545967 47.9154235,5.00203107 M3.56575852,61.0107302 C20.5462241,42.0245008 44.5202786,18.8088868 53.7021285,5.93947268 M3.6734922,65.4228347 C24.9966006,44.400071 41.6631265,23.4381106 58.3057151,5.666316 M3.8986256,73.8174794 C22.6370701,55.5520489 46.6771514,27.9622167 70.7579494,6.36911457 M5.41979038,77.9625981 C19.6554974,59.5165209 36.96073,39.5933711 65.8977756,4.91597195 M2.76771322,92.5264235 C35.9448398,56.058258 60.757118,29.7485444 78.1970368,5.45351491 M2.92596291,87.3968145 C31.2435973,57.5945514 59.5532744,28.2269225 78.920914,3.72969765 M1.07592233,98.4485467 C29.1575685,76.9275706 56.0836251,41.9515004 89.7931943,6.47160437 M2.81213483,103.162017 C34.4293091,63.6815249 67.6720708,25.6159814 90.2001426,2.2717387 M4.31542469,113.44711 C33.9916654,80.7080887 58.9049593,46.5437478 98.3163195,5.14371986 M5.76231142,112.116158 C36.573282,72.8736793 73.5668075,33.5969062 101.468677,4.57938758 M4.00630873,129.090911 C45.5391119,74.8546811 82.6972882,34.3978322 112.907403,6.25660455 M2.90052397,127.754363 C46.2210378,77.9118012 88.7312604,30.6182976 109.680435,5.25048366 M1.69581567,136.260442 C43.903936,92.1583311 87.4687793,41.6015453 119.797472,5.04311743 M4.72756594,137.877598 C33.3991892,102.559 60.5545969,72.2287143 118.666479,2.88562273 M1.67728046,146.527602 C50.9011531,95.7393866 97.169387,41.2128095 130.306822,0.788395 M4.77743392,150.034873 C52.2301943,91.9968135 98.8394472,36.4420009 132.071753,3.75681875 M7.24855627,161.682427 C48.1292101,119.531144 89.1689192,66.7822362 138.663091,5.78743253 M5.09743744,162.945599 C38.7892992,120.821682 77.2047036,80.8677844 141.708339,3.17298149 M3.14028276,174.637409 C44.241513,128.112934 87.587087,80.7237588 152.112237,3.97867918 M4.04211411,176.062326 C60.1391334,109.957361 118.987903,43.6073578 152.543342,4.38159874 M7.09002268,184.393451 C47.756981,130.545752 96.0392087,72.6997958 163.286724,2.48143637 M4.84191112,185.828723 C51.796065,136.921972 98.0530251,83.1274546 162.502809,5.36832906 M3.10540085,201.365189 C64.6749682,129.220916 130.147416,54.5592686 175.797462,1.52522424 M4.74775348,200.125294 C50.3776094,146.841752 96.5324928,95.5301648 172.345162,4.8609184 M6.43561507,209.629713 C47.6513115,157.338168 96.284898,98.4027684 185.033449,5.532438 M3.36870361,211.216188 C70.4927281,133.941565 139.655502,55.0175921 185.386063,2.82429065 M4.93018475,223.439608 C61.4271367,156.967411 125.117145,86.6535965 195.524291,4.86078806 M4.90147694,223.527585 C61.9429366,155.160618 119.854851,86.9944859 193.781012,5.29025502 M4.68093822,233.507943 C62.2832869,167.207775 126.923844,93.5127191 203.073956,4.69197823 M4.15907881,236.253373 C45.2677836,182.838598 88.9362032,132.043459 206.680763,3.54190221 M2.02317273,246.199348 C44.4829809,201.296523 87.2541262,149.615666 216.678418,6.24115515 M4.30549728,248.828934 C60.3616973,183.784699 114.818595,121.764403 215.50328,3.60031044 M1.83702094,262.511544 C72.8874619,181.280789 142.555405,99.9659084 224.955931,5.14615704 M3.17069611,260.075534 C63.2282243,198.173048 117.57498,134.324968 226.717955,5.36450591 M6.0201747,272.292343 C92.5396191,173.004363 177.758885,74.6796881 239.325184,3.20608361 M4.1502972,271.970677 C80.1536815,181.624264 159.351271,91.3829885 237.473542,2.82256555 M1.85083352,287.164369 C79.739473,199.852122 156.347302,110.459959 246.195661,5.16029829 M3.58525964,284.061395 C85.2859687,191.575507 167.945668,96.081809 247.368187,2.92121482 M5.98952197,298.396396 C101.583554,184.87071 200.101069,71.0953252 257.500706,4.26042935 M4.24952286,296.17421 C99.0655089,190.849938 194.0239,85.1101474 259.363138,3.35620982 M3.96210945,307.914606 C95.4108806,202.876075 186.852185,95.0555991 270.270606,5.23230589 M5.07556169,309.434285 C95.3913938,201.010427 186.063756,95.8189596 268.008517,3.80675514 M2.52533854,321.77324 C60.9258582,251.588562 116.046589,186.356737 281.130406,5.07226872 M4.33303042,321.655561 C75.7734764,237.196575 149.130599,153.166308 279.623599,4.83390579 M2.878918,333.754518 C70.3358156,255.992135 137.787687,178.782267 291.261074,5.22265384 M4.54311347,332.100261 C99.1066954,223.621739 194.007443,115.315018 289.493756,3.97094577 M5.65303106,346.622564 C80.9984637,252.757101 161.728056,162.05491 300.269732,3.16926519 M3.26572502,346.126736 C114.282574,221.865296 221.10072,99.7785592 300.934375,3.54036716 M5.01929526,356.57111 C111.859827,235.092058 214.846507,116.533836 310.813441,2.80736132 M3.2667828,357.459764 C107.381239,235.687413 212.170837,116.994777 310.763551,4.32828532 M4.74179124,371.061838 C128.03354,230.783337 247.130779,93.0721702 323.206721,2.75206899 M4.46079026,369.120822 C84.0722183,273.736204 165.598118,179.338417 322.225613,3.65457129 M3.85835045,381.100937 C86.4562535,287.032069 167.16693,192.854342 333.346124,2.77303504 M4.45326902,381.614902 C87.2130453,292.095639 166.935194,200.295594 332.150844,3.04086344 M3.95037316,395.309153 C80.17752,306.791647 156.797131,215.282892 341.964459,3.75716914 M4.91954936,394.413469 C134.162485,246.30955 264.186707,96.4339673 344.18177,3.55703301 M4.15619615,407.351024 C98.1790508,300.492933 194.143055,190.681965 353.619789,4.04160761 M3.34744111,406.336588 C98.4952538,297.189786 194.676785,186.754645 353.375601,4.05778811 M4.42089647,417.680263 C99.7348725,306.159739 202.147748,192.551618 362.643126,2.86912855 M3.97984847,419.052255 C93.3900355,316.23925 181.041334,214.234524 364.244773,3.95409532 M3.66981157,431.84128 C129.446412,285.728888 259.536301,139.025999 375.295747,3.62320131 M3.57977978,429.916817 C119.885037,302.835833 232.033132,172.065476 374.146825,4.8202687 M2.98277544,443.300332 C103.771841,328.706963 204.315819,212.278353 385.743423,4.65914816 M3.77958368,442.031128 C145.054451,281.545729 282.408401,123.614462 384.833638,3.65013151 M3.23200053,454.404953 C136.472058,302.59085 271.076015,148.196832 395.150362,5.10885385 M4.29383103,455.624971 C148.629535,291.00637 291.490804,127.354455 395.520372,3.48672574 M5.05631388,468.815107 C123.985714,324.258281 248.738399,184.255795 407.429211,5.13076567 M4.06855101,466.913219 C142.535818,312.583438 278.491121,155.486095 407.01047,4.89731212 M3.87480296,480.281452 C148.442657,313.464702 295.002221,149.241397 416.991054,4.55989336 M4.66987697,480.099091 C138.398378,325.706677 270.745481,173.398577 417.020655,4.64837015 M2.66105174,490.676497 C171.023359,297.000216 341.592236,102.115418 426.895412,3.1578092 M3.43328256,491.830318 C169.904827,300.734809 334.551733,110.744999 427.505933,4.78059807 M3.83708171,504.599314 C171.211881,307.085457 338.79148,116.109418 439.800246,5.66264795 M4.93252265,504.228848 C87.4412279,405.949806 175.706756,305.363591 438.384589,4.88391287 M2.76729282,515.980248 C140.522748,358.058339 278.777685,199.021935 450.51195,2.83910688 M4.44857434,516.320557 C99.6814062,404.950032 199.354231,290.359468 448.463191,4.7724503 M5.33269962,527.712078 C135.695383,370.356871 271.15202,215.592752 459.335359,5.32844576 M4.31887309,528.491412 C126.916934,383.000629 251.696153,242.086582 460.361587,4.75956485 M5.34457707,542.028271 C140.118019,388.000846 270.814132,235.012039 471.023745,5.49848684 M3.72595848,540.890727 C165.567576,353.258248 326.066458,169.003957 470.237908,3.53282976 M5.31869663,551.334152 C124.782087,411.007171 245.900261,268.030282 482.528816,4.8936149 M3.84671041,553.087324 C167.862013,357.589763 335.427056,164.560115 480.713564,3.22903702 M4.88138537,561.702184 C172.294406,371.63615 339.210111,177.836248 491.55072,4.8847772 M5.43340807,563.589828 C180.913697,366.749184 355.320272,166.231583 492.198248,4.10919737 M14.5679981,564.684301 C144.22796,417.77655 272.678448,272.177604 503.488039,5.3194835 M16.5872022,563.283984 C166.555646,393.333517 315.616958,221.864743 503.014933,3.23354032 M26.3547924,563.131446 C218.041566,347.50068 410.289641,126.50046 514.387796,4.77180608 M26.06499,562.877205 C154.218947,411.893716 284.377851,262.272069 513.524875,3.53651409 M38.8512898,563.655192 C153.468771,431.661619 268.881066,298.075929 524.295449,2.3923797 M36.8467763,563.78519 C206.833557,364.105658 380.496452,165.86493 523.052609,4.50178568 M48.6654492,563.443673 C192.601287,397.172106 337.441009,227.27844 533.004895,4.55840162 M47.4758474,562.572855 C232.167109,348.959303 416.112788,139.210828 534.010954,3.23724083 M58.9536672,563.311587 C223.384666,372.38185 384.348734,185.656562 543.808467,4.3236316 M59.3837705,563.229337 C236.283944,363.344222 410.653382,161.175154 544.026007,4.34998404 M70.3707777,563.150194 C179.991151,433.691797 288.469042,308.893329 556.046939,4.06839193 M69.0153944,563.04299 C255.075928,348.209741 442.645161,132.105432 554.862148,3.42133855 M80.0200522,562.177315 C190.742666,429.251843 303.099138,301.517874 565.659517,4.54956735 M79.9538488,563.276387 C236.705365,379.964073 397.427511,195.37852 566.147038,3.28184635 M91.6031996,563.987336 C232.599273,402.045842 376.155201,241.120172 576.93385,5.15060514 M90.245545,563.041319 C233.176145,398.247055 375.49037,234.253558 576.296621,3.88626818 M101.570367,564.001203 C216.94449,433.897145 329.427852,303.547353 586.399961,3.28622464 M101.325175,563.573799 C266.258269,377.002351 426.651114,192.541606 586.78406,4.94329311 M112.470137,564.116427 C263.150102,390.432657 410.581435,220.455557 597.204491,4.43357895 M111.740713,562.109055 C256.737368,399.558747 398.877224,234.087164 597.688979,3.97170023 M122.299532,563.35708 C304.658203,354.740322 486.738614,147.720253 609.324339,2.91051243 M122.878414,562.556536 C301.623097,355.611438 479.435754,149.762041 608.686104,4.30361611 M134.654012,562.923796 C249.978035,426.537184 370.710549,285.809206 617.940901,4.70672234 M132.687813,562.974908 C272.154405,398.073556 413.14359,237.051811 617.794504,3.54067649 M144.877471,563.243773 C289.319287,391.462628 437.515127,219.87802 629.334013,4.48846844 M143.006729,563.047057 C293.464827,393.900768 437.864496,226.866842 628.846525,4.18373586 M153.412245,562.62077 C340.684728,350.999747 526.423222,137.698773 640.631944,5.048573 M154.886259,562.755089 C335.435771,353.705211 515.663963,147.946379 639.6128,3.50786747 M164.749105,563.885111 C271.735053,446.140084 375.8027,326.004391 649.961405,3.15642078 M164.715784,561.855325 C324.303328,374.384452 486.452883,187.241073 649.927238,3.43736331 M175.17726,563.443679 C339.127687,374.438038 505.378216,187.380148 661.797542,2.60795906 M175.547965,563.353308 C334.899258,378.217846 494.310509,195.217371 661.012031,3.62073411 M187.734356,561.129922 C334.710243,392.613754 488.139729,218.613385 671.513938,3.27569759 M186.823744,561.7788 C337.881497,386.018807 495.06163,207.054418 672.402655,3.30570938 M196.756478,562.053849 C307.213773,434.542306 419.046962,306.22873 683.532616,4.55870865 M196.097345,562.660778 C368.628743,367.928183 539.756384,169.742477 682.872863,4.01423735 M206.028146,564.052034 C365.723388,376.751636 530.292223,189.053742 692.674034,4.03262699 M207.961272,562.802442 C339.296173,415.604989 469.76938,266.621272 693.759691,3.41748501 M219.73232,562.73761 C386.378927,371.840235 554.548188,178.649827 702.307088,4.09964989 M218.171313,561.756208 C386.296213,374.425744 550.659176,184.890345 703.488458,4.41083812 M228.600396,561.350275 C351.75447,421.392974 474.720035,281.513667 715.299113,4.2385371 M228.971533,562.898713 C333.846125,437.560064 441.572319,313.620318 714.097761,4.18890115 M238.60615,563.760998 C354.750495,423.311933 475.837603,285.343087 723.36588,4.4546109 M238.963224,563.26052 C415.683677,358.363444 596.769003,150.787555 724.164481,3.32049736 M250.13997,562.103182 C418.139097,367.340591 588.606093,174.703893 736.421599,3.92975605 M249.854132,562.782284 C438.197119,347.913843 626.351438,131.35086 735.328779,4.42366873 M261.022507,562.350923 C396.004918,406.131672 532.962178,246.84011 746.328914,4.47241981 M259.447109,562.718005 C374.669025,428.159611 491.907185,295.088721 746.819096,3.64067601 M271.278908,562.350166 C433.267986,371.746151 597.509202,180.727917 756.248912,2.76761196 M269.98935,563.691195 C368.841356,447.969393 470.464197,331.132671 757.177158,3.71299869 M279.832755,564.023422 C407.295024,414.646968 535.847564,268.696824 764.166876,6.44574307 M281.241326,563.524584 C432.609624,382.687538 588.512689,203.447412 764.158731,6.87517333 M293.056072,564.019763 C422.809488,414.611585 553.298056,267.735158 762.786235,20.6873341 M291.401792,563.115118 C429.018757,410.075377 563.022349,255.89916 764.202572,19.0845031 M302.919315,561.964824 C483.819433,361.564013 659.911417,155.279762 763.248212,30.5411483 M302.032786,563.508967 C446.163955,399.342464 588.565672,236.13029 763.725074,31.5641898 M314.741383,563.910802 C411.548831,451.193996 511.929788,339.125471 764.351581,44.2531549 M312.584624,562.176514 C429.709045,426.873637 546.018335,293.912912 763.915027,43.3572972 M325.33961,561.786457 C464.594708,402.489192 605.446166,240.247138 765.199614,55.8411762 M323.720905,562.887365 C444.418313,422.867238 565.667888,282.582893 764.155561,55.1263988 M334.779766,562.447111 C494.94693,379.352603 655.830955,193.800129 765.09402,66.899597 M335.043509,562.385343 C475.544125,400.502625 614.040564,239.951639 764.693086,66.9832865 M343.72606,563.924649 C477.966277,408.217102 610.709106,255.336784 765.028887,81.2040742 M345.217596,563.46349 C432.726712,462.60184 519.380567,363.382513 763.706236,80.3186806 M355.591139,562.077518 C500.820371,391.468532 649.824088,222.92953 764.464916,93.9426982 M356.09661,563.239067 C487.568965,411.885445 619.009374,260.600642 764.855103,91.8583915 M367.486088,562.040727 C484.651618,424.471073 601.332859,287.416383 765.94307,106.094251 M366.447274,563.028553 C476.464481,433.012372 587.077365,306.20281 764.669883,104.066577 M375.570427,562.47585 C507.169827,417.2712 633.783673,268.947043 765.458808,116.859367 M377.674592,563.022646 C471.32767,450.859149 566.958542,341.376343 764.900111,116.001904 M388.402116,563.821021 C524.507286,403.244358 661.675516,245.552526 763.556026,127.865245 M387.546852,562.561263 C526.956295,402.830994 667.202984,240.501174 764.783606,128.347258 M397.087551,562.140937 C489.473297,454.398856 584.661122,349.403772 765.221,142.570352 M397.52062,562.808541 C522.397906,422.28407 644.584301,281.701679 763.715406,141.239454 M407.831566,563.776858 C511.879242,443.444234 618.123256,320.781902 765.456619,153.895592 M408.065744,562.227833 C536.296863,417.989531 663.488116,271.757724 764.79701,153.925395 M418.487432,563.196606 C503.997311,467.064527 588.284034,368.547673 765.096032,166.602561 M419.590356,562.456713 C547.447065,418.509301 675.541445,272.183778 764.62502,166.365333 M428.706859,564.044566 C507.745507,469.691083 590.05439,377.606591 765.976887,178.524704 M429.365866,562.181973 C502.15827,480.832686 573.900226,400.150855 764.840378,177.289029 M442.12427,563.413761 C515.902821,480.359497 587.474992,394.774662 764.426132,189.56944 M440.44556,563.027334 C567.691181,414.95068 693.967429,267.790364 765.207099,190.034134 M450.677574,563.254082 C526.08442,477.837143 597.998007,395.56679 765.725878,202.761075 M450.5529,561.697588 C545.228976,450.668548 640.269715,339.677472 763.789402,203.195747 M463.155761,560.65098 C535.366014,475.097131 612.296578,387.742721 764.124769,213.126125 M461.175072,562.763234 C577.183697,427.928861 692.458038,294.460461 764.878036,213.978662 M471.208578,561.422792 C553.524576,470.675376 633.873958,375.881761 765.11044,226.510438 M472.21331,562.548921 C562.659451,460.330806 655.132077,353.920664 763.788849,226.266209 M482.868126,563.062122 C539.358139,496.088638 600.77194,431.891271 763.743733,236.596877 M483.421056,563.406462 C585.979999,438.761135 694.411815,315.035878 764.104104,238.867047 M493.063946,564.343885 C565.484583,480.941259 634.418058,396.356165 765.457634,248.890768 M492.253407,563.61348 C574.364118,470.501545 657.800499,377.211413 765.239556,250.808715 M504.473917,562.451507 C582.554117,476.482133 661.962918,384.938083 766.198257,264.532417 M504.644266,563.247804 C599.445479,457.479904 693.664774,351.323523 765.31861,262.594162 M515.241303,561.182776 C579.930675,493.208727 642.610587,420.134975 765.443764,276.167406 M514.963872,563.688505 C571.565978,494.084388 630.274008,427.453152 765.049058,275.015583 M526.187988,562.967177 C615.83451,462.400052 699.856667,360.112117 763.680313,288.951402 M524.574755,562.088647 C605.286022,464.429421 688.358624,368.453918 764.197939,287.187633 M537.150125,560.976367 C618.931752,469.916512 701.030269,372.257296 764.002409,299.532746 M535.962794,563.889843 C600.658003,488.497157 667.243376,413.260156 765.952021,299.557345 M544.96332,564.708908 C629.329793,468.296027 711.57292,373.818186 767.314664,309.033583 M546.334486,562.028239 C616.460731,481.270978 687.364334,396.642809 766.168519,312.903975 M555.122991,561.572749 C624.843267,484.119518 692.033869,407.524499 763.650126,325.239437 M557.998297,562.975599 C621.650133,485.731238 684.424093,410.275676 764.082381,325.400752 M569.917959,565.566399 C627.172005,491.915605 687.460912,418.219055 763.119587,334.760854 M566.46396,562.221196 C632.146468,487.182349 694.216079,411.956374 763.128409,335.278866 M576.5159,565.275307 C636.959191,493.019217 701.403086,427.02711 763.21594,346.894294 M577.610119,563.844971 C650.745474,479.067389 720.579976,397.416379 763.103048,347.929166 M586.269815,563.546237 C643.16816,506.427752 692.88253,443.381577 762.956401,360.423721 M589.41651,562.252405 C643.901476,498.283889 699.274826,435.179507 765.813729,361.680089 M601.210979,564.443052 C655.418221,501.854435 710.783463,438.729435 766.80356,369.509108 M600.490315,563.76183 C642.896776,515.985598 683.3184,469.721431 763.515179,372.810847 M610.043171,560.453262 C650.619935,518.221129 692.211595,475.960899 765.924437,387.765513 M608.800502,564.068772 C661.466059,505.6623 710.010375,448.934457 763.789804,386.673917 M621.852131,562.325645 C674.156975,500.268888 729.118662,436.433829 764.154977,400.328309 M622.293889,564.338825 C665.212159,514.587537 706.748489,467.46298 765.689236,397.593101 M631.382491,559.662097 C668.821387,519.563708 699.380108,480.853874 762.846897,411.123029 M630.32999,563.835095 C675.921172,515.581096 715.377393,467.124872 764.987953,410.456227 M639.919018,566.337894 C676.997023,519.91671 714.735086,477.288898 768.592316,421.024886 M641.554652,564.030099 C684.722152,516.608685 729.722439,467.044857 766.307511,423.1915 M654.803345,562.603336 C678.7837,538.394221 699.925586,504.818494 762.468281,432.736901 M651.263099,563.368325 C684.730996,523.503834 717.55511,486.428781 764.366427,434.127081 M665.952287,560.056251 C704.045575,524.098062 738.347103,475.150273 767.249067,444.381944 M663.051794,562.351919 C694.223006,529.027729 721.957362,499.529819 765.077377,446.731965 M675.405271,563.959946 C706.436605,523.568845 738.561391,486.914249 764.376062,458.561557 M671.987936,561.77794 C700.394397,531.718705 727.121334,503.165142 764.431005,458.713714 M682.697821,561.519131 C704.498553,532.385893 731.491921,507.080301 767.193575,471.707818 M684.796929,563.566493 C704.077459,541.048749 722.974548,516.713775 762.920484,469.354565 M698.236552,562.504925 C715.323106,540.33311 738.861358,515.757877 760.948065,483.689501 M694.174878,561.448229 C709.309734,544.716811 725.497033,524.745074 764.478249,481.180091 M704.018115,564.634562 C728.68123,534.340945 748.000111,508.958113 763.507087,491.191788 M706.445033,562.406556 C716.71159,549.347354 729.82843,536.133571 766.132435,495.401413 M717.628433,559.177554 C729.343654,547.165002 741.928398,532.14818 762.078228,509.095974 M714.494526,562.346303 C733.856064,542.044672 750.479597,524.787961 765.663326,505.357408 M725.681343,564.108947 C739.97831,542.762412 758.900547,531.86143 761.208347,520.085634 M726.150511,563.309469 C740.236093,547.539816 755.208868,528.067772 762.540081,520.183371 M739.817837,565.715484 C744.771213,552.582972 757.425903,540.813347 764.222222,531.799877 M737.116908,561.143895 C742.260819,554.871923 751.835008,546.758688 766.296888,530.026773 M749.425,563.975315 C751.532078,556.108737 760.253455,552.8516 765.22178,542.439508 M746.630837,562.945467 C751.608137,558.027682 757.608802,551.742669 765.469698,541.715922 M758.655743,564.080223 C759.853158,560.915134 761.543829,557.967201 765.333055,554.788548 M759.037801,562.361535 C758.983944,560.848864 762.311732,558.748929 764.056865,555.816264" id="Shape" stroke="#FFFFFF"></path>
                    <path d="M3.39061315,2.68732052 C174.951201,8.77992396 348.342426,8.22222585 762.148994,3.39855237 M4.38198717,4.50254549 C284.956449,8.72254222 563.615945,8.13868871 761.113469,4.76390001 M760.31584,4.82590184 C761.444269,214.429863 760.499919,423.830163 760.175807,560.848122 M761.478249,3.43380986 C758.701426,156.505593 757.850519,310.485689 760.33019,561.890342 M760.016347,562.751191 C552.476862,558.85001 344.406589,560.66593 3.69327929,561.867651 M760.325213,561.616239 C511.582006,555.009739 260.242828,554.675039 3.81531406,561.407866 M4.02977869,561.830425 C5.32694678,408.140667 7.62689876,255.091488 3.88827722,3.02964974 M3.51382155,561.663383 C-0.268755137,442.349398 -0.0664472693,322.370825 3.56759574,3.41420101" id="Shape" stroke="#000000" stroke-width="2"></path>
                </g>
                <g id="Group" transform="translate(572.356585, 51.390660)" fill="#000000" font-family="sans-serif" font-size="20" font-weight="normal">
                    <text id="Players">
                        <tspan x="0" y="19">Players</tspan>
                    </text>
                </g>
                <g id="Group" transform="translate(569.912249, 105.112340)" fill="#000000" font-family="sans-serif" font-size="20" font-weight="normal">
                    <text id="Joe">
                        <tspan x="0" y="19">Joe</tspan>
                    </text>
                </g>
                <g id="Group" transform="translate(707.191546, 105.190465)" fill="#000000" font-family="sans-serif" font-size="20" font-weight="normal">
                    <text id="5">
                        <tspan x="0" y="19">5</tspan>
                    </text>
                </g>
                <g id="Group" transform="translate(568.873675, 144.636265)" fill="#000000" font-family="sans-serif" font-size="20" font-weight="normal">
                    <text id="Jane-(You)">
                        <tspan x="0" y="19">Jane (You)</tspan>
                    </text>
                </g>
                <g id="Group" transform="translate(706.316057, 141.486851)" fill="#000000" font-family="sans-serif" font-size="20" font-weight="normal">
                    <text id="9">
                        <tspan x="0" y="19">9</tspan>
                    </text>
                </g>
                <g id="Group" transform="translate(570.525530, 187.714879)" fill="#000000" font-family="sans-serif" font-size="20" font-weight="normal">
                    <text id="Harry">
                        <tspan x="0" y="19">Harry</tspan>
                    </text>
                </g>
                <g id="Group" transform="translate(551.493304, 93.095738)" stroke="#000000" stroke-width="2">
                    <path d="M1.24819046,2.40190956 C57.8844685,-1.6741146 115.571347,1.01066463 186.393961,1.99244109 M2.95487501,1.77143106 C39.3690847,1.24919794 76.7778156,1.3865766 185.40337,1.18255997 M184.042208,0.489023594 C182.754624,45.0755809 185.150729,87.311703 186.050773,130.814691 M185.344983,0.758682013 C184.85795,36.4467954 184.868293,73.4575416 184.628484,131.496533 M185.316619,132.456125 C118.930679,129.523783 49.3068876,132.582665 3.50176144,131.375999 M184.741888,131.599717 C144.2718,130.498386 105.251983,131.832959 1.22645311,131.967665 M0.78706217,130.127617 C3.38678889,84.8075442 0.481116753,37.1657231 0.745765986,1.86990639 M1.26775126,131.470713 C3.01397349,97.7564001 1.80023555,63.0544786 2.98252501,0.464516611" id="Shape"></path>
                </g>
                <g id="Group" transform="translate(707.287249, 182.719761)" fill="#000000" font-family="sans-serif" font-size="20" font-weight="normal">
                    <text id="6">
                        <tspan x="0" y="19">6</tspan>
                    </text>
                </g>
                <g id="Group" transform="translate(277.591936, 97.997663)">
                    <polyline id="Path" fill="#000000" points="1.28272667 2.49925214 201.04372 3.36709762 200.812676 218.108053 0.885554878 218.073619"></polyline>
                    <path d="M1.57627917,0.571584491 C76.4781185,1.85695268 150.979325,1.59303005 199.767222,1.53280732 M1.74867682,2.37880999 C62.8482443,0.976076263 125.564922,0.642447579 201.995769,1.72164342 M200.470284,2.18532639 C202.170649,53.5375953 202.639068,106.645309 201.173723,218.8672 M201.066112,1.74477414 C202.740282,47.9284153 203.455155,91.8346106 202.214885,218.137627 M202.776036,215.478053 C143.749094,219.142371 91.013535,217.585926 0.342165889,216.14374 M201.0682,216.524103 C146.37802,217.359781 90.3017146,217.073262 2.6639231,217.685999 M3.47762112,218.241092 C2.07974244,155.371982 2.04583347,91.9510174 1.34568117,1.01882243 M2.24449743,217.685646 C2.56264355,164.394224 4.23815235,111.004331 1.72140669,1.19907186" id="Shape" stroke="#FFFFFF" stroke-width="4"></path>
                </g>
                <g id="Group" transform="translate(300.892439, 123.337926)" fill="#FFFFFF" font-family="sans-serif" font-size="20" font-weight="normal">
                    <text id="How-did-I-lose-my">
                        <tspan x="0" y="19">How did I lose my</tspan>
                    </text>
                    <text id="virginity?">
                        <tspan x="0" y="42">virginity?</tspan>
                    </text>
                </g>
                <g id="Group" transform="translate(41.161761, 350.287633)">
                    <polyline id="Path" fill="#FFFFFF" points="3.8003301 5.73419524 202.981797 4.3079027 202.414664 219.693137 6.4994443 222.130012"></polyline>
                    <path d="M6.90993584,5.51272744 C82.7532244,7.83662167 149.021688,4.91735413 204.927697,6.81950003 M4.07399955,4.0323773 C82.1790563,1.85258048 156.292809,0.930747381 203.542512,2.5812701 M206.486435,0.525140157 C204.895411,60.3221501 201.176032,124.089461 201.468185,221.545485 M203.506754,4.71355533 C202.448251,61.8196062 203.297967,123.240922 204.30838,219.202151 M200.986414,220.61977 C141.699661,213.561827 69.4330532,211.888325 4.07657028,219.577903 M204.680778,219.263251 C148.192343,214.976847 96.1631655,215.204531 4.86034652,217.241164 M2.8748773,220.553433 C-0.376535935,173.889361 0.507767033,124.320325 3.10992835,0.43942837 M3.36685879,218.31599 C5.66431692,161.0451 3.3892539,103.906752 4.37294882,3.43645376" id="Shape" stroke="#000000" stroke-width="2"></path>
                </g>
                <g id="Group" transform="translate(62.632952, 373.925398)" fill="#000000" font-family="sans-serif" font-size="16" font-weight="normal">
                    <text id="Gloryholes.">
                        <tspan x="0" y="15">Gloryholes.</tspan>
                    </text>
                </g>
                <g id="Group" transform="translate(280.788714, 348.568883)">
                    <polyline id="Path" fill="#FFFFFF" points="1.33824259 4.3079027 200.414664 4.23903585 204.142999 222.130012 2.85735267 220.724849"></polyline>
                    <path d="M6.86604762,4.98488217 C44.881703,-0.442634549 94.5528799,4.31125084 205.729279,1.99470728 M4.88486597,3.36511994 C71.1601917,0.38221209 136.810485,0.520195352 202.132578,1.65791494 M205.423272,1.19051772 C203.689172,72.7461517 201.453465,139.931294 201.799699,216.144331 M202.936498,2.38267072 C201.336931,62.7131294 199.859096,120.440207 203.17378,219.444134 M205.647078,217.50688 C159.160086,217.995188 121.384523,221.739712 2.0004288,216.152684 M201.096461,218.690213 C162.645165,220.533312 119.851429,218.856578 1.2780073,220.144328 M0.807059363,219.975072 C3.98069434,142.157652 3.39926036,67.2253416 1.67505129,3.97798972 M4.7178764,217.517846 C5.9614831,146.509494 5.89161854,78.2050518 2.47561523,4.19513739" id="Shape" stroke="#000000" stroke-width="2"></path>
                </g>
                <g id="Group" transform="translate(302.022879, 375.241664)" fill="#000000" font-family="sans-serif" font-size="16" font-weight="normal">
                    <text id="Homeless-people.">
                        <tspan x="0" y="15">Homeless people.</tspan>
                    </text>
                </g>
                <g id="Group" transform="translate(518.953753, 346.572789)">
                    <polyline id="Path" fill="#FFFFFF" points="1.77110976 5.23903585 205.142999 7.67591012 203.500907 221.724849 7.23753506 218.508777"></polyline>
                    <path d="M0.247334126,3.06561464 C76.7184544,5.83815536 151.954349,1.01336262 205.158795,2.1479991 M4.70442799,3.44328684 C73.0973977,2.85233168 143.885904,1.92897652 203.855546,5.05401969 M202.703892,6.82619662 C203.462692,56.4791157 205.794206,100.465694 202.622651,217.1805 M204.786215,5.36705098 C203.939539,90.4999371 204.804939,176.493807 201.916063,217.855538 M200.327886,216.833378 C132.018013,219.63237 61.2397588,216.207151 0.280004028,219.528548 M204.971401,219.917897 C135.533761,218.712545 65.981282,221.615709 4.90022549,218.238655 M2.69136233,217.491746 C4.47231862,139.322567 5.03744157,65.2901652 4.92617909,0.733717583 M3.44281338,217.852245 C-0.328286335,156.956238 -0.225619933,94.7806033 3.27363329,4.57169415" id="Shape" stroke="#000000" stroke-width="2"></path>
                </g>
                <g id="Group" transform="translate(541.852400, 372.725621)" fill="#000000" font-family="sans-serif" font-size="16" font-weight="normal">
                    <text id="Darth-Vader">
                        <tspan x="0" y="15">Darth Vader</tspan>
                    </text>
                </g>
                <g id="Group" transform="translate(633.330497, 104.535470)" fill="#000000" font-family="AppleColorEmoji, Apple Color Emoji" font-size="20" font-weight="normal">
                    <text id="👨‍⚖️">
                        <tspan x="0" y="22">👨‍⚖️</tspan>
                    </text>
                </g>
                <g id="Group" transform="translate(786.136579, 77.223110)" fill="#000000" font-family="sans-serif" font-size="20" font-weight="normal">
                    <text id="Every-round-JUDGE">
                        <tspan x="0" y="19">Every round JUDGE</tspan>
                    </text>
                    <text id="changes.">
                        <tspan x="0" y="42">changes.</tspan>
                    </text>
                </g>
                <g id="Group" transform="translate(661.000000, 90.000000)" stroke="#000000" stroke-width="2">
                    <g transform="translate(0.714704, 0.555699)" id="Shape">
                        <path d="M112.160007,2.2962951 C94.2446693,5.70549053 20.8849522,21.5008658 2.70687333,26.1288226 M108.7975,0.621748369 C90.4563479,4.25507332 19.0834484,21.7779513 0.741748774,26.3215142"></path>
                    </g>
                    <g transform="translate(0.714704, 9.555699)" id="Shape">
                        <path d="M24.6660048,2.14790764 C16.482059,8.20725487 14.4478389,11.9979441 2.15060475,16.2080879 M24.3292125,0.84465944 C20.548996,3.17770578 14.978372,7.64616045 0.204316702,18.9379336"></path>
                    </g>
                    <g transform="translate(0.714704, 25.555699)" id="Shape">
                        <path d="M29.5609821,6.07676109 C19.4931801,6.09140942 15.955695,3.76187704 2.15060475,0.208087854 M29.2241898,4.77351289 C24.328407,2.20001667 17.5587687,1.78694096 0.204316702,2.93793364"></path>
                    </g>
                </g>
                <g id="Group" transform="translate(16.772670, 78.390625)">
                    <polyline id="Path" fill="#000000" points="1.38409692 2.7425389 158.651265 2.17857888 159.737343 98.5100594 2.30828726 100.566701"></polyline>
                    <path d="M3.08287313,0.369048538 C62.0110054,-0.662263506 121.675006,0.954557723 160.47064,1.24093557 M2.41643196,0.587352349 C34.3876143,2.59640985 69.3501915,1.17371711 160.500095,1.0492851 M158.716963,1.50371432 C159.742806,22.7938374 162.100017,39.7831811 161.145103,100.4753 M161.095512,0.412879392 C159.94596,32.2940665 160.099357,64.4826714 161.332038,100.010869 M162.236962,97.5714984 C113.426351,99.4839293 68.7474827,100.189965 3.55477843,97.9414971 M160.483081,99.9930322 C119.897293,97.7912223 78.121564,98.473367 2.46393183,99.6854928 M0.316879122,97.304221 C3.42290174,71.708929 0.53556411,46.9579993 3.71840384,2.07196158 M2.23871568,98.2767024 C2.41040864,67.364422 2.16017019,33.404762 1.37957138,0.290043547" id="Shape" stroke="#FFFFFF" stroke-width="4"></path>
                </g>
                <g id="Group" transform="translate(25.791992, 49.568080)" fill="#000000" font-family="sans-serif" font-size="20" font-weight="normal">
                    <text id="Last-winner:-Jane">
                        <tspan x="0" y="19">Last winner: Jane</tspan>
                    </text>
                </g>
                <g id="Group" transform="translate(33.680385, 95.428571)" fill="#FFFFFF" font-family="sans-serif" font-size="16" font-weight="normal">
                    <text id="Oedipus-Complex,">
                        <tspan x="0" y="15">Oedipus Complex,</tspan>
                    </text>
                    <text id="kid-tested,-mother">
                        <tspan x="0" y="33">kid tested, mother</tspan>
                    </text>
                    <text id="approved.">
                        <tspan x="0" y="51">approved.</tspan>
                    </text>
                </g>
                <g id="Group" transform="translate(272.304827, 0.000000)" fill="#000000" font-family="sans-serif" font-size="20" font-weight="normal">
                    <text id="You-can-see-last-winner-combination-here">
                        <tspan x="0" y="19">You can see last winner combination here</tspan>
                    </text>
                </g>
                <g id="Group" transform="translate(202.000000, 18.000000)" stroke="#000000" stroke-width="2">
                    <g transform="translate(1.320452, 0.842634)" id="Shape">
                        <path d="M65.3967375,0.916685228 C54.7036734,7.20547764 11.9070529,33.4833869 1.08007189,39.8716784 M65.3992172,2.71394537 C54.8673114,8.82562894 11.0622202,31.6169638 0.464219871,37.5790322"></path>
                    </g>
                    <g transform="translate(0.320452, 14.842634)" id="Shape">
                        <path d="M19.6072156,2.69351602 C16.1701151,8.85133767 8.74708107,14.1036089 0.271794528,24.0153352 M22.310994,0.780127099 C14.6018335,8.95969992 8.28403638,16.0553704 1.46996028,22.6741249"></path>
                    </g>
                    <g transform="translate(0.320452, 32.842634)" id="Shape">
                        <path d="M29.3428449,2.75833054 C22.7706816,3.16992238 12.2334983,2.64377638 0.271794528,6.01533519 M32.0466233,0.844941618 C21.0076545,2.81383873 11.3893485,3.78529491 1.46996028,4.67412489"></path>
                    </g>
                </g>
            </g>
        </g>
    </g>
</svg>